<?xml version="1.0" standalone="no"?>
<!DOCTYPE svg PUBLIC "-//W3C//DTD SVG 1.1//EN" "http://www.w3.org/Graphics/SVG/1.1/DTD/svg11.dtd" >
<svg xmlns="http://www.w3.org/2000/svg">
<metadata></metadata>
<defs>
<font id="lehn015regular" horiz-adv-x="878" >
<font-face units-per-em="2048" ascent="1638" descent="-410" />
<missing-glyph horiz-adv-x="737" />
<glyph horiz-adv-x="2048" />
<glyph horiz-adv-x="2048" />
<glyph unicode="&#xd;" horiz-adv-x="737" />
<glyph unicode=" "  horiz-adv-x="737" />
<glyph unicode="&#x09;" horiz-adv-x="737" />
<glyph unicode="&#xa0;" horiz-adv-x="737" />
<glyph unicode="!" horiz-adv-x="577" d="M322 106q0 43 57 82q33 20 100 48l41 -27l39 -33l-67 -96q-49 -61 -93 -62q-27 0 -52 30t-25 58zM358 549q0 55 2 86q10 156 11 172q0 117 9 221.5t19 208.5l-6 109l-4 84q0 104 8 126q18 53 101 54h8q33 0 53 -41q12 -29 12 -70q0 -43 -12 -115l-22 -147 q-4 -31 -10.5 -81t-6.5 -83l-2 -246v-61l-6 -51l-14 -86q0 -20 3 -32.5t13 -41.5q2 -8 9 -38t7 -36q0 -31 -19 -63.5t-52 -32.5q-37 0 -69 59.5t-32 104.5z" />
<glyph unicode="&#x22;" horiz-adv-x="757" d="M160 1038l12 152q12 129 18.5 147.5t47.5 18.5q35 0 57 -17q22 -12 22 -47q0 -25 -10 -61l-10 -64l6 -110q0 -43 -23.5 -76t-70.5 -33q-27 0 -39 27q-10 31 -10 63zM395 1022l4 47l9 49l24 162q29 111 94 111q23 0 53.5 -19t30.5 -39q0 -16 -16 -41l-16 -35 q-12 -106 -31 -188q-31 -147 -84 -147q-33 0 -50.5 31.5t-17.5 68.5z" />
<glyph unicode="#" horiz-adv-x="1277" d="M160 588v78q242 39 305 108q53 59 53 252v131q129 0 150 -174l10 -160h33q86 0 123 80q25 55 24 164l-2 47v45q0 102 16.5 143t53.5 41q39 0 64.5 -38.5t25.5 -83.5q0 -39 -10 -86l-9 -76l-18 -19l-2 -20q0 -66 70 -102l131 -54q-59 -53 -122 -70.5t-91 -33.5l-11 -23 l-10 -22l6 -51l8 -35q35 0 84 14q104 29 138 33q29 0 52 -17.5t46 -50.5q-31 -14 -160 -55q-180 -53 -180 -180l8 -51q18 -72 19 -91q0 -76 -80 -75q-41 0 -66 67q-20 76 -20 207q-127 -12 -135 -90q0 -72 -76 -92q-23 6 -66 74q-31 47 -178 47l-31 22l-14 39q145 49 162 62 q47 31 47 83q0 39 -10 72l-162 -41l-121 -24zM655 649q0 -53 10.5 -77.5t47.5 -24.5q49 0 81.5 39t32.5 86q0 31 -20.5 44t-56.5 17q-43 0 -69 -22.5t-26 -61.5z" />
<glyph unicode="$" horiz-adv-x="937" d="M160 195q10 51 84.5 100t74.5 121q0 53 -104 155q-51 51 -51 88q0 39 102.5 130.5t102.5 193.5l-7 74l-14 125q0 47 11.5 75.5t39.5 57.5l21 -8l39 -13l-4 -96l-4 -96v-46.5t5 -45t23 -68.5q59 27 81 54.5t22 70.5l-4 61l-5 64q0 37 13.5 59.5t52.5 22.5t50 -9.5 t30 -52.5q-12 -47 -23 -94q-2 -8 -18 -59q0 -59 117.5 -107.5t117.5 -132.5q0 -33 -18 -54.5t-57 -39.5q-35 55 -64 84q-20 20 -55 35q-39 -18 -64 -58q-20 -41 -20 -88q0 -74 145.5 -111.5t145.5 -129.5q0 -90 -149.5 -142.5t-149.5 -208.5q0 -61 12 -117.5t39 -125.5h-39 q-31 6 -47 8l-74 12l23 121l6 94q0 49 -10 76q-16 45 -56 45q-49 0 -68.5 -51t-19.5 -139l2 -80q0 -43 4 -66q-86 8 -123.5 147.5t-115.5 164.5zM395 449l6 -43l37 -93q41 20 56 35q24 25 24 60q0 16 -2 26t-14 37l-23 59h-20l-43 -32q-16 -14 -21 -49zM430 745 q0 -39 33 -74.5t76 -41.5l8 43l2 45l-2 31l-8 55h-41q-31 0 -49 -17q-18 -12 -19 -41zM647 459q0 -23 10 -43l21 -43q66 16 81 27.5t40 70.5l-47 35l-52 8q-20 0 -38 -18q-10 -14 -15 -37z" />
<glyph unicode="%" horiz-adv-x="1118" d="M160 1059q0 160 164 254q127 70 356 100q147 18 338 19q37 0 51.5 -7.5t34.5 -40.5q-12 -88 -209 -448q-182 -336 -379 -643q-209 -332 -262 -352q-25 10 -43 33.5t-18 48.5q0 39 28 90q16 35 55 82q137 184 244 340q127 184 223 360q106 195 175 379l-76 12l-76 6 q-141 0 -199 -65q-47 -57 -47 -201q0 -80 -44 -135t-128 -55q-86 0 -139 65q-49 68 -49 158zM254 1071q0 -55 22 -94q31 -55 78 -55q43 0 68 51q16 39 16 90q0 47 -18.5 84t-63.5 37q-47 0 -77 -31q-25 -29 -25 -82zM614 162q0 109 86 201t201 92q74 0 116 -57.5t42 -135.5 q0 -119 -72 -191.5t-192 -72.5q-84 0 -132.5 41t-48.5 123zM700 221q0 -49 37 -79.5t90 -30.5h31q31 0 63.5 30.5t32.5 67.5q0 47 -38.5 80t-90.5 33q-49 0 -87 -28t-38 -73z" />
<glyph unicode="&#x26;" d="M154 780q0 53 168 189q80 61 79 118q0 33 -20 130l-10 81q0 41 19.5 69t60.5 28q61 0 79 -111l15 -166q6 -33 101 -62.5t95 -97.5l-4 -55q-25 0 -45 4t-33 6l-75 11q-78 0 -146.5 -43t-99.5 -115l31 -6l37 -2h47q27 6 39 8q117 18 147 18h33l30 -6q10 -4 29 -33 q-12 -41 -45 -75l-108 -103l96 -8l61 2l72 2q20 0 37 -16l35 -37l-340 -117q53 -12 73.5 -65.5t20.5 -110.5q0 -92 -8.5 -171t-26.5 -142q-35 -129 -90 -129q-35 0 -52.5 35.5t-17.5 72.5q0 135 37 320l43 190l-106 -4q-66 0 -103 14q-57 23 -57 76q0 31 39 72l67 57 q-70 12 -131 56q-74 53 -73 116z" />
<glyph unicode="'" horiz-adv-x="479" d="M315 1008q0 39 21 106q12 37 16 55.5t6 42.5l-2 123q0 78 13.5 109t50.5 31q51 0 72 -52q12 -30 12 -96q0 -160 -17 -227q-25 -125 -108 -197l-47 45q-16 20 -17 60z" />
<glyph unicode="(" horiz-adv-x="677" d="M4 551q0 137 47 358q55 272 137 457q98 227 211 227l39 -6q22 -4 45 -16l-108 -141q-70 -88 -92 -152q-72 -203 -113 -360q-20 -90 -32.5 -188.5t-12.5 -184.5q0 -264 104 -410l211 -252h-20l-17 -20h-20q-199 0 -303 262q-76 197 -76 426z" />
<glyph unicode=")" horiz-adv-x="598" d="M74 1544l24 23l35 20q201 0 324 -287q96 -229 96 -462q0 -88 -68.5 -330t-154.5 -430q-98 -219 -170 -244q-4 2 -31 16q-4 2 -12 7l-23 49q23 119 113 289l149 284q78 174 78 320q0 332 -123 497q-45 61 -237 248z" />
<glyph unicode="*" horiz-adv-x="1097" d="M113 563q10 66 77 139l121 115q-51 12 -83.5 33.5t-55.5 64.5l279 119l-113 99q-68 68 -86 116l41 17l39 6q35 0 94 -39l86 -62l18 19v35v24q-4 20 -4 29l-8 104q0 29 18.5 52.5t53.5 23.5q59 0 80 -106l20 -162q18 14 33 27q31 25 55 38q57 35 105 35q41 0 66.5 -27.5 t39.5 -72.5q-27 -4 -38 -8t-40 -21l-61 -28l96 2q27 2 37 4t45 12l6 -61q0 -78 -149.5 -99.5t-149.5 -95.5q0 -70 105.5 -181.5t109.5 -144.5q0 -27 -24 -51q-23 -18 -54 -22q-49 0 -98 61q-25 33 -63 105l-25 -123q-25 -76 -82 -76q-31 0 -52.5 36t-21.5 126v45l2 39 q0 31 -3 48t-5 26.5t-12 33.5l-164 -158q-115 -102 -184 -102z" />
<glyph unicode="+" horiz-adv-x="997" d="M160 666q297 37 325 65q41 37 41 291q0 51 8.5 78.5t43.5 56.5q45 -25 62 -65.5t17 -98.5l-2 -49v-49q0 -45 4 -64l21 -53l37 -12l43 -2l74 6l75 6q33 0 58.5 -14t29.5 -45q0 -41 -39 -55q-18 -6 -42.5 -10.5t-59.5 -4.5h-45l-39 2q-53 0 -90 -24q-33 -27 -33 -80 q0 -18 2 -41t8 -47l27 -150q0 -45 -19.5 -73.5t-66.5 -28.5q-37 0 -51 48t-14 114l2 71l2 51q0 53 -19 82q-25 35 -78 35q-8 0 -33.5 -2t-64.5 -8l-59 -4q-51 0 -79 14.5t-46 59.5z" />
<glyph unicode="," horiz-adv-x="458" d="M109 -369q35 49 75 117q29 47 70 117q66 119 65 231q0 37 -12 90l-49 146l18 18l23 2q20 10 51 15q61 0 92 -72q8 -23 14.5 -56.5t6.5 -70.5q0 -86 -101 -336q-109 -272 -180 -272q-29 0 -49 18.5t-24 52.5z" />
<glyph unicode="-" d="M160 629l98 26q55 12 102 13l103 -6l176 -15q25 0 49.5 4t38.5 6l86 13l45 -6q21 -2 23 -35q0 -61 -58 -88q-47 -20 -112 -21q-49 0 -179 21l-106 10q-43 0 -64 -4l-104 -15q-41 0 -65 25q-20 25 -33 72z" />
<glyph unicode="." horiz-adv-x="577" d="M307 135q0 61 50.5 111.5t117.5 50.5q49 0 81 -38t32 -91q0 -61 -47 -115q-43 -53 -109 -53q-51 0 -90 39q-35 41 -35 96z" />
<glyph unicode="/" horiz-adv-x="1177" d="M180 -86q0 88 213 432q199 322 420 617q233 313 289 313q27 0 49 -16q25 -12 25 -39q0 -25 -15 -47l-37 -48q-131 -147 -236.5 -292.5t-209.5 -323.5l-291 -475q-8 -20 -15 -36.5t-20 -35.5q-25 -39 -56.5 -60.5t-82.5 -37.5q-33 12 -33 49z" />
<glyph unicode="0" horiz-adv-x="997" d="M184 375q0 90 6.5 170t20.5 155q37 205 123 328q104 152 274 152q176 0 287 -199q88 -170 88 -358q0 -238 -149 -439q-164 -221 -398 -221q-147 0 -209 141q-43 98 -43 271zM307 387q0 -123 27 -201q43 -119 143 -118q158 0 287 221q113 196 113 368q0 152 -70 242 q-80 102 -229 102q-139 0 -216 -249q-55 -182 -55 -365z" />
<glyph unicode="1" horiz-adv-x="399" d="M156 242v133q0 111 3 221.5t5 177.5q0 147 35 301q25 135 77 135q37 0 64 -35.5t27 -80.5q0 -76 -23 -164q-53 -223 -53 -281q0 -45 2 -76q10 -150 10 -186q0 -84 7 -131t22 -74l39 -73l14 -41q0 -43 -39 -76t-84 -33q-66 0 -90 59q-14 43 -14 119z" />
<glyph unicode="2" horiz-adv-x="1216" d="M162 66q0 74 145 219q211 207 268 280q147 184 148 359q0 39 -18.5 67.5t-57.5 28.5q-72 0 -170 -62l-178 -135q-63 0 -63 64q0 104 157 198q141 82 258 82q102 0 150 -61q39 -55 39 -160q0 -145 -74 -297q-59 -125 -176 -260l-211 -231q33 -6 67.5 -10.5t75.5 -4.5 q82 0 275 21l168 12q78 0 137 -12q33 -6 55.5 -15t59.5 -32l-19 -21q-6 -35 -45 -53l-39 -4h-37q-160 0 -411.5 -22.5t-352.5 -22.5q-68 0 -94 8q-57 16 -57 64z" />
<glyph unicode="3" horiz-adv-x="1097" d="M160 96q51 23 122.5 32t106.5 10t55 1l86 -2h88q123 0 189 17q129 31 129 106q0 121 -242.5 230.5t-242.5 158.5q0 57 167.5 209t180.5 201l-19 18l-22 2q-115 0 -250 -67q-53 -27 -122 -60.5t-105 -48.5q-27 4 -45.5 22.5t-18.5 45.5q0 86 236 168q201 68 319 67 q80 0 133 -22q76 -31 76 -97q0 -84 -195 -278l-147 -143q229 -121 276 -158q172 -121 172 -242q0 -184 -301 -239q-129 -25 -446 -25q-68 0 -110 19.5t-70 74.5z" />
<glyph unicode="4" horiz-adv-x="1257" d="M162 461q0 319 37 521t104 224q35 -6 47 -20.5t29 -52.5l-68 -236q-33 -125 -32 -231q0 -84 10 -141.5t19 -85t30 -66.5l227 69q133 59 133 166q0 199 37 301.5t115 102.5q29 0 47 -31q12 -23 16 -61q0 -45 -51 -207q-2 -8 -14 -58.5t-12 -76.5l2 -48h53q29 6 43 9 q129 18 162 18q59 0 102.5 -18.5t61.5 -69.5q-25 -55 -80 -55l-62 8l-61 8q-180 0 -234 -59q-41 -45 -41 -183v-51l2 -55q0 -53 -10 -87t-55 -34q-74 0 -92 156l-9 147v68h-20q-33 0 -142.5 -60.5t-162.5 -60.5q-80 0 -111 92q-20 68 -20 158z" />
<glyph unicode="5" horiz-adv-x="1038" d="M156 682q0 55 20 123l43 137l19 70l22 69q27 57 254 90q72 10 148.5 16.5t142.5 6.5q80 0 139 -19.5t94 -74.5l-30 -29q-14 -10 -31 -14l-45 8q-61 18 -84 18q-39 0 -124 -12t-126 -12q-168 0 -231 -84q-53 -72 -54 -250q0 -37 5.5 -54.5t23.5 -42t206.5 -49t272.5 -55.5 q150 -53 150 -166q0 -172 -258 -262q-184 -61 -406 -61q-49 0 -93 22.5t-44 69.5q0 31 27.5 52.5t62.5 21.5q27 0 41 -8l37 -35q25 -6 65 -11q102 0 238 43q176 55 176 142q0 92 -170 110q-315 31 -319 35q-172 43 -172 205z" />
<glyph unicode="6" horiz-adv-x="997" d="M156 313q0 14 50 98.5t50 184.5q0 135 143 352q154 233 283 234q35 0 54.5 -12.5t23.5 -47.5q-123 -133 -236.5 -282.5t-113.5 -292.5q0 -18 8 -37q12 10 39 16l61 4l21 19l67 6q139 0 256 -68q137 -82 137 -211q0 -96 -114 -161q-98 -55 -207 -56q-86 0 -297 97 q-225 102 -225 157zM418 373l20 -60q14 -45 79 -93t118 -48q66 0 131 37q74 43 74 104q0 53 -56.5 89t-117.5 36q-57 0 -127 -20q-47 -12 -121 -45z" />
<glyph unicode="7" horiz-adv-x="1097" d="M160 1079q49 6 209 58q123 37 221 37q168 0 233 -15q150 -31 150 -127q0 -37 -14.5 -92t-45.5 -127l-55 -127l150 -63q69 -46 69 -134l-98 29q-53 16 -92 17q-119 0 -148.5 -264.5t-165.5 -288.5l-36 24q-6 10 -11 39q0 76 47.5 218.5t47.5 213.5l-3 33l-143 -39 l-129 -35q-76 0 -106 74l395 133q66 47 182 377q-49 25 -106 31l-138 8h-94q-43 0 -118.5 -25.5t-110.5 -25.5q-29 0 -52.5 19.5t-37.5 51.5z" />
<glyph unicode="8" horiz-adv-x="1118" d="M160 96q0 78 49 183q102 219 106 249l-12 80l-10 76q0 166 207 340t377 174q113 0 157 -96q29 -63 29 -195q0 -51 -4 -83.5t-19 -69.5l-41 -90q4 -20 15.5 -44t38.5 -67q45 -78 45 -123q0 -246 -228 -405q-207 -145 -467 -146q-115 0 -176 49q-68 55 -67 168zM297 127 q0 -63 53 -101t123 -38q160 0 322 125q170 132 170 288q0 55 -19 93q-25 47 -76 47q-41 0 -67 -17l-94 -73q-10 -10 -37 -17l-43 -4h-35q-35 0 -57 -6q-74 -27 -158 -127q-41 -49 -61.5 -90t-20.5 -80zM459 702q0 -70 65 -69q16 0 37 2t43 8l62 16q166 43 196 62 q82 51 82 184q0 154 -145 154q-92 0 -216 -130t-124 -227z" />
<glyph unicode="9" horiz-adv-x="917" d="M170 719q0 168 94 301q104 154 268 154q186 0 286 -96.5t100 -274.5q0 -225 -140 -535q-158 -354 -336 -405l-36 14q-4 2 -5 4q-10 14 -20 41q127 137 206 251t79 271l-9 27q-16 -23 -62 -33t-56 -12h-41q-152 0 -240 71.5t-88 221.5zM297 727q0 -90 66.5 -141t158.5 -51 q121 0 193.5 75.5t72.5 196.5q0 90 -49 168q-55 84 -149 84q-115 0 -204 -105.5t-89 -226.5z" />
<glyph unicode=":" horiz-adv-x="559" d="M309 160q0 55 43 95t97 40q41 0 63 -29q25 -24 25 -71q0 -55 -42 -94.5t-100 -39.5q-41 0 -63.5 29t-22.5 70zM309 647q0 51 31 98.5t84 47.5q37 0 57.5 -41t20.5 -80q0 -57 -24.5 -90t-84.5 -33q-39 0 -63 26q-20 31 -21 72z" />
<glyph unicode=";" horiz-adv-x="538" d="M195 -438l141 176q70 88 70 203q0 80 -21 168q-2 16 -14.5 60t-32.5 105l20 21h41q92 0 123 -117q17 -65 17 -196q0 -125 -70 -271q-84 -174 -190 -174q-18 0 -44 8.5t-40 16.5zM299 725l31 29q14 14 35 16q20 0 43 -16l51 -29l-41 -96q-27 6 -46.5 12t-29.5 16 q-18 12 -43 68z" />
<glyph unicode="&#x3c;" horiz-adv-x="1257" d="M184 297q0 37 103 178q84 119 205 268l161 197q66 78 128.5 118t105.5 40q49 0 90 -39q-61 -74 -116.5 -133.5t-86.5 -91.5l-209 -222q-117 -131 -186 -239q102 -57 301 -115l313 -82q53 -12 80 -31q47 -28 47 -69q0 -27 -16 -49q-10 -18 -39 -23q-203 78 -407.5 144.5 t-319.5 66.5q-61 0 -98 12q-55 18 -56 70z" />
<glyph unicode="=" horiz-adv-x="997" d="M160 686q68 29 276 53l283 27l192 41q86 0 86 -82q0 -88 -86 -88q-29 0 -108 18l-66 11q-27 0 -95.5 -15.5t-169.5 -44t-163 -28.5q-59 0 -98 23.5t-51 84.5zM293 358q0 68 207 99l139 14l201 31q55 0 89 -20.5t34 -73.5q0 -31 -29 -44.5t-80 -13.5l-51 2l-39 2 q-96 0 -195 -18q-55 -8 -100 -18.5t-107 -28.5q-27 -6 -49 16q-18 23 -20 53z" />
<glyph unicode="&#x3e;" horiz-adv-x="1077" d="M258 1120l27 21h24l41 -6q14 0 139 -107l246 -213q141 -117 203 -149q57 -27 80 -45q47 -37 47 -78q0 -35 -45 -72q-20 -14 -82 -41q-119 -45 -233 -125q-76 -53 -207 -168l-74 -94q-53 -68 -92 -68q-25 0 -44.5 28t-19.5 54q0 78 150 191l420 319q-119 74 -326 258 q-231 207 -254 295z" />
<glyph unicode="?" horiz-adv-x="1056" d="M240 1102v20l18 17q23 106 244 215q201 98 334 98q92 0 150 -40t58 -132q0 -139 -116 -334l-209 -299q-23 -35 -39 -92l-41 -162q-61 16 -90 41q-41 31 -41 88q0 78 104 217l199 254q106 156 107 264q0 43 -34 63.5t-79 20.5q-100 0 -227 -88l-256 -178l-41 6zM537 104 q0 61 71 62h25.5t36.5 -8l67 -21l-18 -78q-4 -16 -37 -29.5t-55 -13.5q-90 0 -90 88z" />
<glyph unicode="@" horiz-adv-x="1337" d="M156 457q0 172 41 332.5t129 328.5q203 391 518 391q190 0 295 -215q84 -174 84 -381q0 -127 -17 -170q-31 -80 -129 -96l-28 12l-31 7q-23 -23 -70 -111q-72 -137 -166 -137q-72 0 -104 90q-23 63 -23 149q0 115 45 256q55 182 146 183q53 0 141 -95l70 -79q6 16 16 53 t10 80q0 125 -77 221q-84 104 -209 104q-166 0 -291 -188q-98 -150 -164 -406q-51 -217 -51 -370q0 -205 108.5 -301.5t319.5 -96.5q119 0 221 78q45 33 172 168q104 111 184 148q10 -4 23 -25l14 -37q0 -74 -65.5 -145.5t-198.5 -149.5q-231 -133 -401 -133 q-231 0 -371.5 150.5t-140.5 384.5zM725 653q0 -37 12.5 -63.5t50.5 -26.5q80 0 123 94q31 68 31 162q0 74 -22.5 106.5t-61.5 32.5q-59 0 -102 -124q-31 -96 -31 -181z" />
<glyph unicode="A" horiz-adv-x="1157" d="M170 104q0 25 80 308q41 141 76.5 266t81.5 274l110 367q12 49 41 77.5t78 28.5q39 0 74 -18q18 -10 32.5 -21.5t34 -31t82.5 -213.5q31 -90 76 -238q20 -68 45 -149q53 -186 57 -224l-20 -20q0 -68 37 -160q84 -211 84 -260q0 -39 -14.5 -64.5t-53.5 -37.5 q-78 20 -118 274t-167 254q-238 0 -340 -123q-33 -41 -94 -229q-37 -123 -135 -123q-25 0 -37 18q-6 14 -10 45zM459 588l35 -6l55 -4q150 0 221 51q61 42 61 112q0 80 -41.5 205t-91.5 211l-41 -39l-94 -246z" />
<glyph unicode="B" horiz-adv-x="1277" d="M160 78q29 29 127 59q37 10 37 158l2 237q0 37 2 108t2 103q0 49 -4 133.5t-4 116.5q0 51 -6.5 85t-16.5 61h-20l-21 18v21q0 31 25 65l36 51l39 158l31 25q35 -6 88 -44t111 -38q49 0 190 37q31 8 66 14t53 6q96 0 150 -20q82 -31 81 -113q0 -133 -235 -361l-195 -174 l365 -161q197 -115 197 -316q0 -252 -381 -293l-322 -20l-199 -60q-66 0 -120 40t-78 104zM416 248q0 -70 27.5 -111t95.5 -41h106q184 0 307 37q191 56 191 201q0 186 -264 266q-31 8 -420 66l-21 -19l-4 -51l-10 -90l-4 -150zM436 909.5q0 -26.5 4 -59.5q0 -29 3 -45.5 t16 -59.5l57 43l107 68q45 41 106 96q74 68 113 107q149 155 149 231q0 45 -38 64.5t-91 19.5h-31.5t-48.5 -8q-41 -6 -84 -20q-158 -51 -210 -127t-52 -252v-57.5z" />
<glyph unicode="C" horiz-adv-x="1216" d="M164 446q0 119 51 324q59 240 145 401q106 199 213 199q111 0 234 -143q82 -98 151 -246l-51 -20l-51 -11q-25 0 -133 191q-49 90 -117 90q-94 0 -217 -328q-111 -295 -110 -432q0 -158 73 -266q86 -121 244 -121q139 0 319.5 131t243.5 131q55 0 55 -51q0 -86 -301 -215 q-276 -117 -397 -117q-186 0 -276 158q-76 133 -76 325z" />
<glyph unicode="D" horiz-adv-x="1097" d="M209 645v133l2 109v57q0 182 16 275q29 170 103 170q16 0 53 -11l55 -16l318 -74q176 -80 282 -215q119 -150 119 -328q0 -170 -113 -315q-88 -113 -266 -233q-86 -57 -299 -179l-67 -38q-47 -23 -70 -27q-51 0 -87 89t-36 259q0 53 -5 176t-5 168zM328 492 q0 -123 14 -203q12 -86 57 -172h19l395 241q215 164 215 383q0 190 -148.5 341t-344.5 151q-35 0 -70 -11.5t-57 -33.5q-41 -43 -62 -291q0 -98 -9 -238.5t-9 -166.5z" />
<glyph unicode="E" horiz-adv-x="976" d="M160 510q98 127 98 274q0 31 -40 71t-50 67q31 102 283 168q195 49 350 49q70 0 110 -21q41 -17 66 -80l-74 -10l-92 -2q-223 0 -291 -20q-141 -43 -141 -203q0 -57 15.5 -96t70.5 -39q53 0 144 42t139 42q63 0 90 -66l-320 -108q-164 -78 -164 -248q0 -63 13 -135 l32 -156l230 188q168 125 250 125q35 0 58.5 -7t23.5 -32q-2 -6 -5.5 -13t-13.5 -21l-27 -29q-31 -31 -120 -76q-45 -23 -78 -42t-51 -36l-76 -67l-72 -68q-47 -39 -88 -59q-16 -8 -30.5 -12.5t-34.5 -4.5q-70 0 -101 62q-6 16 -16 57t-10 100l6 132l8 90q0 68 -18.5 110.5 t-73.5 73.5z" />
<glyph unicode="F" horiz-adv-x="997" d="M211 1004q0 115 285 172q100 20 196 30.5t205 10.5q29 0 58.5 -8.5t80.5 -32.5q92 -41 92 -84q0 -18 -30.5 -37t-53.5 -23q-18 0 -75.5 34t-98.5 34q-195 0 -305 -35q-182 -55 -182 -197q0 -70 27 -163l28 -97l189 51q106 27 170 27q63 0 103 -21.5t58 -76.5l-331 -43 q-209 -55 -209 -203l6 -94l6 -96q0 -98 -29.5 -146.5t-81.5 -48.5q-37 0 -50 54.5t-13 127.5v51l2 46l-8 239l-8 242q0 49 -21 180z" />
<glyph unicode="G" horiz-adv-x="1296" d="M162 434q0 242 147 531q173 333 392 333h1q111 0 185 -61t110 -176l-6 -23l-14 -37q-37 6 -166 115q-63 51 -104 51q-172 0 -301 -280q-111 -240 -111 -434q0 -135 45 -226q58 -114 184 -114h2q145 0 262 98t117 240q0 68 -60.5 92t-152.5 24l-43 -2h-39q-80 0 -116 19 q-53 25 -62 96l23 37l71 8l52 2l90 -2l84 -2q80 0 202 18l271 41h2q69 0 69 -75q0 -29 -16 -52q-31 -12 -59 -12l-43 2l-37 4q-41 0 -107 -31l-57 -30l41 -86q25 -55 24 -88q0 -166 -180 -289q-166 -113 -338 -113q-184 0 -280 123q-82 111 -82 299z" />
<glyph unicode="H" horiz-adv-x="917" d="M135 981q0 129 6 205t14.5 124t22.5 103q47 0 80 -25.5t33 -76.5l-6 -178l-15 -299v-80t4 -70l25 -135l279 57q141 49 141 197q0 61 -25 276q-12 104 -12 164v60.5t8 69.5t47 79q49 -25 67 -70t19 -110l-2 -68v-22q0 -14 -4 -43v-316q0 -63 33 -123l68 -112 q-43 -18 -62.5 -62.5t-19.5 -95.5q0 -63 18 -154q43 -203 43 -258q0 -25 -12.5 -51t-40.5 -26q-61 0 -85 51t-24 133l2 74q0 43 4 65q0 41 -2 78t-8 70q-6 68 -33 137q-168 -37 -233 -62q-166 -59 -166 -135q0 -80 25 -159l51 -154q-12 -18 -29.5 -27.5t-50.5 -13.5 q-49 0 -92 221q-18 100 -31 191q-18 129 -18 227q0 102 -9.5 222t-9.5 122z" />
<glyph unicode="I" horiz-adv-x="1396" d="M160 -59l336 92q225 66 225 176q0 170 -23 352q-12 121 -23 228.5t-18 152.5l-370 -90q-9 -2 -19 -2l-55 14q-31 20 -53 58q94 39 496.5 130t490.5 91q63 0 100 -21.5t49 -83.5q-358 0 -436 -96q-61 -78 -61 -450q0 -168 22 -236q41 -129 164 -129q20 0 47 2t55 8 q139 25 177 25q51 0 83 -16.5t50 -67.5l-119 -31l-127 -16l-233 -17q-72 0 -136.5 -9t-122.5 -23q-27 -6 -176 -62q-113 -41 -180 -41q-84 0 -143 62z" />
<glyph unicode="J" horiz-adv-x="1456" d="M178 412q78 0 205 -86l225 -160q141 -88 250 -88q86 0 139 86q41 72 41 168q0 123 -20 258q-51 365 -51 424q0 39 4 48t37 28q66 -14 96 -70q20 -45 20 -117l-2 -69v-25q0 -14 -4 -43q0 -72 21 -258l10 -156q0 -154 -51 -258q-68 -139 -205 -139q-88 0 -315 113 q-203 98 -301.5 171.5t-98.5 172.5zM358 1030q10 31 42 54.5t325 91.5q106 25 291 61q127 27 303 59q315 57 358 58q39 0 58 -31l22 -66q-35 -8 -147.5 -27.5t-190.5 -31.5l-387 -55q-199 -25 -334 -64q-25 -10 -43 -18q-51 -23 -119.5 -55.5t-101.5 -32.5q-51 0 -76 57z " />
<glyph unicode="K" horiz-adv-x="1056" d="M160 373v39q0 35 28.5 114.5t28.5 122.5v66v57v49v43v37v33v29v24l-2 78v80v22q0 45 8 58.5t51 34.5q49 0 70 -39q14 -33 14 -82v-49v-50q-4 -20 -4 -28l-14 -211q0 -86 18 -172q125 119 220 305l159 340l27 43q17 24 43 24h2q23 0 42 -21.5t21 -47.5q0 -57 -112 -252 l-244 -416q0 -47 227 -262q203 -186 314 -264q-20 -27 -46 -40t-61 -18q-80 0 -182 109l-174 205q-97 110 -165 110h-1q-59 0 -84 -71q-8 -31 -14 -79t-6 -101v-68q0 -45 4 -72q0 -53 -18.5 -82.5t-69.5 -29.5q-27 0 -44.5 23.5t-17.5 78.5l6 86l15 145l18 19l2 20z" />
<glyph unicode="L" horiz-adv-x="1097" d="M168 408v63l2 57v615q0 74 70 74q37 0 57 -27t20 -68q0 -2 -10 -145t-10 -209l-10 -217q0 -131 13 -227.5t58 -186.5l314 109q238 78 313 78q74 0 113 -70q-31 -39 -58.5 -49t-66.5 -10h-55q-59 0 -292 -96.5t-315 -96.5t-118 139q-25 98 -25 267z" />
<glyph unicode="M" horiz-adv-x="1357" d="M213 213q0 129 20 301q45 412 46 506q0 35 12 62.5t45 29.5q121 0 178 -151l80 -316q49 -199 143 -272q41 49 137 270l160 365q80 180 113 182q25 0 49 -39l27 -61q31 -88 49 -197t18 -244q0 -106 2 -225t4 -229q0 -25 4.5 -50.5t18.5 -72.5q22 -84 22 -123 q0 -43 -28 -72q-25 -31 -72 -31t-72 86q-18 86 -18 222l2 114l6 123v31v24q0 45 -2 88.5t-8 83.5q0 51 -6 91.5t-25 113.5l-143 -342q-117 -227 -256 -227q-113 0 -191 117q-45 70 -90 217q-16 -37 -39 -207q-31 -256 -159 -303q-27 68 -27 135z" />
<glyph unicode="N" horiz-adv-x="1038" d="M193 190q12 88 21 205t9 242q0 176 14.5 282.5t26.5 135t29.5 46t48.5 17.5q53 0 150 -196q35 -78 155 -387q86 -233 119 -273l33 -8l14 -2l25 22q0 57 14 129q33 186 33 224v73q-6 61 -8 95q0 96 -7.5 164.5t-11.5 119.5q0 43 18.5 80t59.5 37q39 0 61 -37 q21 -41 21 -80q0 -244 -12.5 -432t-40.5 -344q-49 -301 -150 -301q-80 0 -153 137l-123 283q-74 172 -140 225q-23 -92 -32 -194l-7 -230q0 -66 -10 -94q-18 -53 -69 -53q-45 0 -68 30q-20 35 -20 84z" />
<glyph unicode="O" horiz-adv-x="1056" d="M170 432q0 184 68 490q80 356 180 432q14 10 76 26l84 17q45 0 99 -48.5t83 -62.5l16 8h23q129 0 202 -217q54 -163 54 -323q0 -295 -119 -502q-150 -254 -426 -254q-172 0 -264 137q-76 117 -76 297zM285 453q0 -131 61 -228q71 -110 199 -110h2q199 0 309 260 q82 201 82 428q0 106 -76 209q-25 33 -284 262q-131 -129 -218 -383q-75 -230 -75 -433v-5z" />
<glyph unicode="P" horiz-adv-x="817" d="M162 1163q0 80 119 131q47 18 93 28.5t99 10.5q150 0 281 -69q155 -85 155 -222q0 -127 -135 -235l-250 -172q-137 -113 -137 -256q0 -43 43 -166q20 -61 21 -90q0 -41 -26 -76t-67 -35q-74 0 -94 217l-8 189v53q0 72 6 190.5t6 124.5l31 314h-43q-27 0 -43 4 q-51 12 -51 59zM412 936q0 -123 26 -229q18 18 58 38l65 37q86 61 135 117q70 82 70 160q0 66 -61 108q-66 39 -136 39q-90 0 -129 -96q-28 -68 -28 -167v-7z" />
<glyph unicode="Q" horiz-adv-x="1038" d="M160 471q0 82 8 168t27 172q43 229 133 360q113 168 278 168q160 0 295 -252q117 -221 117 -401q0 -115 -64 -260q-33 -76 -48 -123t-15 -76q0 -70 58.5 -192.5t58.5 -184.5q0 -35 -11 -65q-94 18 -186 248q-41 100 -96 100q-27 0 -99 -14l-65 -8q-162 0 -276.5 99 t-114.5 261zM299 489q0 -141 59.5 -208.5t198.5 -67.5q59 0 86 16q37 23 37 76q0 61 -55.5 164.5t-55.5 130.5q0 23 21.5 35t48.5 12q47 0 127 -147l51 -107q49 100 67.5 164t18.5 115q0 113 -104 321q-115 227 -211 228q-147 0 -232 -308q-57 -225 -57 -424z" />
<glyph unicode="R" horiz-adv-x="1056" d="M209 145q0 61 14 162l17 144v628q0 150 137 236q117 71 278 71h4q150 0 229 -74.5t79 -224.5q0 -160 -99.5 -312t-249.5 -226q23 -20 84 -109l54 -67q37 -43 110 -105l117 -98l43 -47q25 -35 25 -62q0 -20 -18.5 -43.5t-43.5 -25.5q-49 0 -155 112l-203 224 q-124 118 -212 118h-1q-45 0 -62.5 -39.5t-17.5 -93.5q0 -35 20 -145l11 -92q0 -55 -11 -78q-16 -39 -59 -39q-45 0 -67.5 43t-22.5 143zM369 834q0 -102 15 -170t67 -68q117 0 264 197q139 188 139 309q0 78 -57.5 130t-134.5 52q-152 0 -228 -108q-31 -47 -47 -107.5 t-16 -140.5l-2 -51v-43z" />
<glyph unicode="S" horiz-adv-x="1077" d="M160 96q12 20 37.5 38t50.5 18t262 -37q117 -18 188 -19q49 0 73 2t52 13q74 23 74 84q0 94 -156 229l-292 250q-158 168 -158 338q0 137 91 252.5t224 115.5q162 0 303.5 -139t141.5 -297q0 -43 -13 -80q-63 12 -165.5 208t-245.5 196q-82 0 -141.5 -84t-59.5 -170 q0 -131 158 -295l293 -279q157 -161 157 -273q0 -99 -116 -142q-82 -29 -203 -29l-94 -2l-107 -2q-121 0 -205 18q-102 25 -149 86z" />
<glyph unicode="T" horiz-adv-x="997" d="M-119 981v20q0 37 37 61.5t82 37.5l330 57l489 78l299 39q49 0 65.5 -7t45.5 -44q-25 -74 -244 -95.5t-240 -31.5q-43 -14 -69.5 -159.5t-26.5 -465.5v-133v-61.5t4 -71.5q0 -41 23 -86l35 -86q0 -27 -38 -58.5t-69 -31.5q-41 0 -69 86q-23 90 -23 245q0 80 2 117 t12.5 139.5t14.5 165t4 115.5q0 63 -6.5 123.5t-20.5 124.5l-358 -68q-142 -26 -188 -26h-3l-35 2q-16 0 -53 14z" />
<glyph unicode="U" horiz-adv-x="1456" d="M18 844q106 49 250 149q160 113 261.5 178.5t148.5 85.5l72 -45q29 -25 28 -73q0 -123 -62.5 -369t-62.5 -371q0 -139 45 -262q129 43 273 402q117 293 147 499l15 133q18 96 63 97q57 0 86 -92q20 -82 21 -195l-3 -100v-29v-25q-4 -16 -4 -24v-123q6 -55 9 -80l24 -248 q6 -66 57.5 -185.5t55.5 -150.5q0 -61 -60 -61q-78 0 -151 293l-74 381q-119 -307 -239 -475q-59 -80 -113.5 -121t-106.5 -41q-84 0 -139 94q-43 80 -43 174q0 61 6 123.5t23 148.5q31 176 47 290t16 159q0 61 -10 98l-223 -149q-217 -141 -258 -154q-31 10 -33 10 q-14 6 -25 13z" />
<glyph unicode="V" horiz-adv-x="897" d="M47 1077q0 27 19 43l45 23q84 -16 172 -219q31 -68 147 -406q84 -246 148 -323l18 18l2 23q59 78 123 485q57 377 57 516l-2 45q0 41 11.5 56.5t37.5 19.5q43 0 66 -29q24 -25 24 -72l-6 -59l-12 -59l-49 -367q-49 -344 -100 -524q-74 -266 -160 -266q-78 0 -219 317 q-102 240 -150 408q-12 51 -92 188t-80 182z" />
<glyph unicode="W" horiz-adv-x="1376" d="M119 1061q0 29 24 59q27 27 60 27q39 0 63 -62q14 -39 36 -228t71 -361q57 -205 166 -379q55 135 79 356l54 447q14 35 49 53q109 -37 162 -197l75 -303q53 -180 160 -258q16 55 29.5 125t23.5 141q6 70 10.5 143.5t4.5 157.5l-2 183l-2 188q0 27 22.5 46.5t50.5 19.5 q37 0 55 -37t20 -127q0 -301 -32 -566q-53 -446 -168 -446q-106 0 -217 215l-135 309q-33 -225 -65 -354q-66 -272 -166 -272q-98 0 -185 188q-29 63 -60.5 162.5t-59.5 218.5l-64 293l-37 127q-10 37 -16 70.5t-6 60.5z" />
<glyph unicode="X" horiz-adv-x="1136" d="M166 1161q6 29 25.5 48.5t48.5 21.5q37 0 127 -135l231 -371l20 20q4 14 8.5 28.5t18.5 51.5l33 80l74 244q55 154 153 178q29 -18 35 -29.5t8 -19.5t2 -31q0 -61 -125 -333.5t-125 -325.5q0 -43 109 -150l203 -202q110 -123 110 -203l-4 -51q-86 8 -250 196l-229 273 q-59 -127 -107 -222q-84 -170 -139 -280q-98 -188 -147 -209l-35 18q-33 23 -33 60q0 49 86 196l160 275q88 170 88 260q0 102 -74 223q-35 55 -151 199q-94 115 -121 190z" />
<glyph unicode="Y" d="M53 1155q0 12 19 41q18 23 37 27q18 0 41 -15l34 -32q37 -39 86 -111l136 -201l69 -82l123 -135q92 274 117 326q104 246 188 246q23 0 44.5 -16.5t25.5 -47.5q0 -53 -64 -149l-51 -84q-35 -78 -78 -197q-49 -133 -92 -258l-92 -279l-14 -88q-6 -63 -25 -98 q-25 -49 -49.5 -68.5t-54.5 -21.5q-33 0 -54.5 21.5t-21.5 54.5q0 43 69 252l72 219q1 4 1 9q0 50 -105 185l-232 291q-129 160 -129 211z" />
<glyph unicode="Z" horiz-adv-x="1236" d="M164 1055q0 49 309 155.5t387 106.5q104 0 180 -47q94 -57 95 -152q0 -53 -66 -211q-33 -86 -33 -131l2 -31h62q39 0 69.5 -11t67.5 -48q-49 -53 -207 -68q-72 0 -126 -19t-87 -50q-106 -100 -190 -217q-102 -141 -129 -254q61 -12 127 -12q47 0 107.5 10t150.5 32.5 t158.5 35t109.5 12.5q20 0 43 -18.5t25 -43.5q-8 -57 -314 -119q-252 -49 -373 -49q-88 0 -147 22.5t-94 90.5q18 74 194 280l193 230l-129 -4q-43 0 -61.5 3t-48 15t-60.5 66l27 20l30 17q229 0 375 86q174 106 174 319q0 133 -137 133q-66 0 -221 -71l-348 -158 q-39 0 -77 22.5t-38 57.5z" />
<glyph unicode="[" horiz-adv-x="1017" d="M160 -78q0 72 20 162l60 270q10 84 14 134.5t4 115.5l6 256l-2 266q0 41 -2 130.5t-2 138.5q0 74 65.5 108.5t151.5 34.5q96 0 199 -37q123 -45 143 -127q-16 0 -59 6t-114 19.5t-112 13.5q-133 0 -133 -135v-174l2 -172v-43q0 -49 -6 -151.5t-6 -153.5q0 -94 -22 -209 q-51 -295 -52 -350q0 -43 3.5 -63.5t19.5 -57.5l147 45q160 49 256 49q57 0 100.5 -17.5t76.5 -58.5l-62 -51l-51 -4l-51 -2h-35q-59 0 -158 -25q-213 -53 -268 -53q-133 0 -133 135z" />
<glyph unicode="\" horiz-adv-x="1097" d="M172 1174q0 49 57 49q66 0 177 -160q70 -102 184 -322q109 -205 147 -252l361 -430l-49 -47q-25 -18 -64 -18q-27 0 -43 16l-27 37l-84 121l-90 119q-68 96 -172 264l-163 268q-96 152 -187 260l-33 43q-10 23 -14 52z" />
<glyph unicode="]" horiz-adv-x="1216" d="M270 1358q0 29 13 59q12 23 43 39l237 21l486 39q-6 -27 14 -74q25 -47 24 -66v-510q0 -242 21 -432l53 -291l-6 -55q-2 -20 -20 -47q-27 -35 -109 -59q-51 -10 -71.5 -14.5t-57.5 -14.5l-420 -170q-45 16 -57 28.5t-31 55.5l373 145q227 111 227 264q0 92 -30.5 275.5 t-30.5 275.5l4 146l6 141v23q0 27 -1 56.5t-7 77.5t-29 87l-45 16l-43 6q-76 0 -283 -18l-170 -10z" />
<glyph unicode="^" d="M158 889q0 20 107.5 254.5t130 265.5t46 48.5t54.5 17.5q84 0 145 -152l78 -223l92 -129q63 -89 63 -140q0 -29 -26 -53q-25 -18 -60 -18q-20 0 -36 8l-29 23l-113 208l-112 218q-41 -37 -97 -168q-96 -225 -165 -226q-35 0 -56.5 15.5t-21.5 50.5z" />
<glyph unicode="_" horiz-adv-x="1236" d="M10 -106l348 61l211 37l37 -4h66l186 2q29 0 82 2t76 2q133 0 231 -23q-6 -55 -20 -82q-23 -39 -72 -39q-51 0 -85 4.5t-54 6.5q-190 25 -244 24q-98 0 -233 -24q-301 -55 -383 -56q-57 0 -97.5 18.5t-48.5 70.5z" />
<glyph unicode="`" horiz-adv-x="897" d="M207 1223q0 35 12 71q39 0 115 -57q164 -131 184 -139l55 -8q31 0 66 -11q29 -4 51 -14q37 -18 37 -51l-4 -27l-4 -26q-135 0 -305 69q-207 84 -207 193z" />
<glyph unicode="a" horiz-adv-x="976" d="M59 92q0 121 16.5 228.5t55.5 230.5q92 295 248 371q63 -27 104 -58q41 -27 95 -80l24 -4l27 15l28 8q61 0 86 -37q18 -29 19 -86l-2 -49l-2 -43v-103l-2 -57v-53q0 -123 32 -164q44 -56 189 -74q-6 -57 -49 -98t-103 -41q-98 0 -155 100q-18 35 -92 332 q-121 -248 -158 -303q-127 -193 -256 -193q-59 0 -84 46q-20 47 -21 112zM188 156q0 -59 11 -97q104 98 204 246q121 181 121 285q0 45 -20 86l-86 127h-19q-115 -104 -141 -244q-10 -53 -23.5 -123.5t-17.5 -85.5q-29 -147 -29 -194z" />
<glyph unicode="b" horiz-adv-x="1056" d="M59 39q88 31 123 96q27 53 27 139l-2 78l-8 135q8 74 14 165t6 157q0 90 21 274q10 100 22 203q29 285 39 307l43 17l43 -6q27 -4 51 -15q0 -41 -6 -97t-22 -153l-60 -358q0 -59 35 -82q27 -16 84 -16l51 2l49 2q178 0 325.5 -141.5t147.5 -317.5q0 -221 -321 -371 q-272 -125 -522 -125q-51 0 -83 26t-57 81zM338 201q0 -111 115 -111q160 0 297 90q161 107 161 254q0 131 -99 240.5t-234 109.5q-158 0 -213 -227q-27 -123 -27 -356z" />
<glyph unicode="c" horiz-adv-x="937" d="M59 330q0 162 105 364q121 231 270 232q119 0 182 -152q47 -117 48 -254l-7 -90q-102 0 -157 131l-62 223q-113 -43 -181.5 -202.5t-68.5 -296.5q0 -94 35 -148q42 -67 127 -67h2q88 0 292 103t271 103l23 -2q0 -117 -266 -227q-227 -92 -373 -92q-133 0 -195 127 q-20 45 -32.5 108.5t-12.5 139.5z" />
<glyph unicode="d" horiz-adv-x="1038" d="M68 205q0 154 204 413q213 268 371 269l53 -6q20 -2 29.5 -4.5t32.5 -12.5q35 94 35 180q0 25 -2.5 57t-8.5 66q-24 160 -24 204t9 59.5t46 37.5q53 -12 78 -79q16 -53 16 -132l-2 -43v-36l-12 -289l-10 -262l-2 -70v-57q0 -76 22.5 -114t114.5 -112l8 -30 q0 -96 -301 -199q-133 -43 -231.5 -65.5t-167.5 -22.5q-125 0 -191.5 62.5t-66.5 185.5zM213 215q0 -63 50 -109.5t116 -46.5q104 0 225 60q141 68 154 155l6 58l2 65q0 113 -31 209q-27 96 -98 178q-18 -18 -39 -18l-131 -131q-68 -74 -113 -148l-135 -233z" />
<glyph unicode="e" horiz-adv-x="958" d="M59 217q0 178 123 397q139 244 307 244q84 0 145.5 -66.5t61.5 -152.5q0 -61 -43 -123q-59 -78 -256.5 -99.5t-197.5 -209.5q0 -31 30 -60q30 -24 65 -24h3q53 0 240.5 104.5t289.5 104.5q74 -1 131 -58q-82 -20 -221 -92q-88 -45 -146.5 -73.5t-78.5 -36.5 q-131 -53 -233 -54q-102 0 -161 50.5t-59 148.5zM317 504l2 -15q131 41 185 76q61 41 61 84q0 31 -28 60q-24 28 -58 28h-2q-57 0 -115 -88q-46 -75 -46 -132q0 -7 1 -13z" />
<glyph unicode="f" horiz-adv-x="1177" d="M51 461v18q51 49 271 121q170 55 188 154l27 321q25 246 79 398q72 194 192 194h1q133 0 215 -182q66 -150 66 -299q0 -29 -3.5 -42.5t-13.5 -35.5l-41 -12l-43 -6q-47 248 -63 299q-29 98 -76 172q-117 -141 -172 -355q-47 -182 -47 -393q0 -47 24.5 -80t75.5 -33 q55 0 123 21q164 47 203 47q83 0 114 -68q-25 -43 -60.5 -57t-78.5 -14h-37l-34 2q-229 0 -308 -76q-63 -63 -63 -217l2 -98l10 -195q0 -88 -8 -121q-18 -66 -76 -90q-35 27 -53 107q-6 39 -10 85t-4 101q0 43 2 99.5t8 125.5l10 166q-63 0 -131 -24l-205 -80l-41 18 q-25 12 -43 29z" />
<glyph unicode="g" horiz-adv-x="1097" d="M12 -844q0 276 144 512q84 139 290 348q184 184 222 267q0 23 -9 45l-20 45q-104 -104 -176 -152q-104 -65 -218 -65h-3q-82 0 -132.5 37.5t-50.5 119.5q0 186 145.5 333t332.5 147q166 0 217 -146l63 -274l92 73q68 49 103 50l39 -7q16 -2 47 -18q-20 -55 -160 -164 q-121 -92 -121 -190l4 -219l4 -164q0 -193 -37 -375q-49 -240 -149 -385q-123 -178 -311 -178q-147 0 -231.5 105.5t-84.5 254.5zM123 -805q0 -100 53 -188q61 -102 158 -103q133 0 235 191q74 145 121 395q35 203 35 336q0 41 -2 78t-8 67q-6 57 -37 125 q-195 -123 -369 -395q-186 -293 -186 -506zM205 344q0 -33 20 -59q23 -23 58 -23q90 0 191 112t101 208q0 41 -19 69.5t-58 28.5q-86 0 -189.5 -125t-103.5 -211z" />
<glyph unicode="h" horiz-adv-x="1157" d="M72 68q0 86 2 195.5t6 240.5q0 96 8 163.5t28.5 195.5t45 217t57.5 157q37 -12 68 -37l10 -35l2 -65q0 -106 -57 -449q-27 -174 -27 -272v-72t3 -50t7 -42t15 -57q174 301 281.5 455.5t183.5 154.5q100 0 100 -319t121 -320q35 0 114 94l58 72l24 -47q13 -24 17 -49 q0 -68 -79 -132.5t-151 -64.5q-145 0 -207 221l-45 344q-66 -51 -155 -227q-121 -238 -152 -281q-92 -135 -200 -135q-45 0 -64 43q-6 23 -10 45.5t-4 55.5z" />
<glyph unicode="i" horiz-adv-x="538" d="M178 84q0 23 12.5 60.5t19.5 65.5t9 44v412v43q0 45 7 68.5t42 23.5q51 0 78 -47q19 -38 19 -97q0 -33 -4.5 -127t-4.5 -118l-18 -412h-19q-16 -12 -47 -14q-41 0 -67.5 29.5t-26.5 68.5zM254 1200q0 57 65 57q41 0 62.5 -13t21.5 -54q0 -20 -8 -43l-18 -47 q-35 0 -63.5 15t-45.5 34q-10 16 -14 51z" />
<glyph unicode="j" horiz-adv-x="638" d="M-588 -330q0 43 39 74q33 23 90 41l21 -21q0 -176 153 -286q135 -98 326 -99q205 0 281 211q45 131 45 385l-13 283l-10 258v99.5t4 78.5q0 51 33 111l47 24q41 -8 57.5 -35.5t16.5 -72.5q0 -33 -8.5 -166t-8.5 -233q0 -102 -5 -196.5t-11 -203.5q0 -231 -12 -317 q-25 -164 -111 -250q-106 -100 -321 -100q-158 0 -375 133q-238 141 -238 282zM399 1284q0 31 33 64q10 10 25 18q23 14 47 14q29 0 47 -25.5t18 -60.5q0 -41 -23.5 -70.5t-66.5 -29.5q-20 0 -48 30.5t-32 59.5z" />
<glyph unicode="k" horiz-adv-x="897" d="M55 -145q0 35 17 73l26 72q12 55 23.5 120.5t11.5 129.5q12 141 12 282l-2 170l-2 168l2 115q0 35 17 94q59 -12 90 -49q20 -35 20 -86l-6 -80l-6 -86l2 -162q0 -33 7 -67.5t12 -59.5l104 111q76 76 96 107l107 219q84 145 170 145q31 0 61 -12l-158 -234l-260 -395 q74 -33 277 -198t221 -214l-39 -10l-37 -6q-61 0 -235 150.5t-256 150.5q-94 0 -94 -266q0 -264 -93 -264q-35 0 -61.5 23.5t-26.5 58.5z" />
<glyph unicode="l" horiz-adv-x="778" d="M59 39q12 33 52 88l63 82q49 61 67.5 129t18.5 149l-6 123l-6 133q0 223 71 433q96 288 274 288h1q59 0 86 -51q20 -41 20 -104q0 -137 -69 -353l-129 -348q-70 -186 -70 -243q0 -139 111 -189q49 -21 235 -39q-12 -49 -44 -80.5t-85 -31.5q-59 0 -131 34 q-92 43 -199 136l-77 -109q-55 -66 -111 -66l-27 3q-18 0 -45 16zM346 770l6 -96q6 -43 27 -86q90 180 137 315q68 191 68 332l-6 80q-100 -90 -166 -243.5t-66 -301.5z" />
<glyph unicode="m" horiz-adv-x="1316" d="M98 608q0 29 2 59.5t11.5 75.5t46.5 45q90 0 112 -251l9 -164l137 223q95 149 191 149h1q90 0 115 -120l14 -115q35 61 82 115q65 75 112 75h1q37 0 51 -51q6 -25 10 -57.5t4 -75.5v-31q-4 -35 -4 -53v-31v-24q-4 -20 -4 -29v-63.5t7.5 -66.5t17.5 -67.5t24 -54.5 l133 127q41 35 99 58l33 -13l34 -14q-37 -92 -141 -178t-203 -86q-117 0 -143 225l-12 178q-80 -172 -90 -184q-74 -123 -146 -123q-49 0 -68.5 35t-19.5 84q0 51 12.5 105.5t26.5 125.5q8 45 10 64l-2 28l-2 21l-84 -78q-8 -10 -20.5 -29.5t-22.5 -40.5q-43 -160 -80 -258 q-68 -184 -159 -184q-23 0 -39 29q-6 6 -31 293z" />
<glyph unicode="n" horiz-adv-x="1357" d="M59 373q12 37 140 139q63 51 252 180l188 131h39l18 -78l6 -63q0 -37 -2 -55.5t-14 -69.5q-37 -166 -37 -209t8 -74q143 229 264 371.5t171 142.5q35 0 53 -57q6 -29 10 -66.5t4 -91.5v-34q0 -10 -2 -31t-2 -33v-37v-32q-4 -25 -4 -37q0 -61 6 -116.5t21 -115.5l47 41 q33 23 51 27q6 -2 14 -3t21 -7l47 -19q-29 -70 -82 -117q-63 -59 -129 -59q-74 0 -107 84q-22 60 -22 172v10l2 94v36t4 42q0 70 -27 129q-94 -150 -172 -268q-59 -92 -135 -203q-125 -180 -170 -180q-31 0 -51 27.5t-20 60.5q0 76 61 346q31 133 31 209l-2 49l-150 -106 q-178 -135 -280 -135z" />
<glyph unicode="o" horiz-adv-x="757" d="M68 322q0 117 48 285.5t113 228.5q27 23 56 32l61 9h35q33 0 59 10l86 37q49 18 95 18q88 0 122 -74q23 -51 23 -153q0 -225 -104 -441q-129 -262 -334 -262q-125 0 -192.5 90.5t-67.5 219.5zM205 391q0 -119 41 -182q35 -55 92 -55q123 0 223 192q88 170 88 303l-6 82 q-6 31 -25 72q-43 -31 -206 -82q-207 -66 -207 -330z" />
<glyph unicode="p" horiz-adv-x="798" d="M27 -633q10 115 18 241t8 216q0 131 13 252q2 27 53 373q43 336 76.5 356t159.5 50t169 30q135 0 213 -127q66 -109 66 -252q0 -225 -145.5 -364.5t-374.5 -139.5l-29 -2l-29 -12q-25 -41 -37 -117l-8 -197l2 -147v-59.5t4 -65.5q0 -45 -2 -63.5t-14 -43.5 q-25 -57 -84 -57q-37 0 -48 40t-11 89zM217 244q0 -61 25 -109q25 -41 90 -41q145 0 256 135q102 127 102 277q0 96 -53 178q-61 98 -154 98q-115 0 -200 -217q-33 -88 -49.5 -167t-16.5 -154z" />
<glyph unicode="q" horiz-adv-x="837" d="M59 137q0 207 177 508q195 334 385 334q133 0 184 -170q16 -55 24.5 -121t8.5 -158q0 -119 -109 -258l-111 -135q100 -72 158 -190q51 -121 51 -258q0 -145 -30.5 -291t-96.5 -295q-160 -375 -409 -375q-106 0 -158 115q-35 82 -35 207q0 150 72 428q55 225 129 426 q-96 18 -164 73q-76 66 -76 160zM188 186l2 -41l9 -49q57 16 96 41l84 58l137 75q78 49 99.5 115t34 133t12.5 137q0 117 -44 209l-20 -20q-125 0 -274 -269q-135 -246 -136 -389zM219 -903q0 -102 8 -141q18 -102 78 -103q27 0 44.5 10.5t68.5 57.5q135 133 217 383 q72 225 72 438q0 90 -31 180q-41 121 -119 121q-74 0 -160 -213q-66 -168 -122 -407.5t-56 -325.5z" />
<glyph unicode="r" horiz-adv-x="817" d="M70 791q0 43 9 67.5t40 44.5q55 -31 94 -143q51 -152 66 -172q78 106 135 162q100 94 184 94q90 0 135 -17.5t72 -93.5l-14 -24l-33 -43l-74 41q-47 25 -78 26q-35 0 -71 -28q-27 -20 -56 -58q-66 -84 -131 -297q-104 -362 -172 -362q-31 0 -44 33.5t-13 74.5l6 125 l14 209q0 63 -34.5 183t-34.5 178z" />
<glyph unicode="s" horiz-adv-x="897" d="M59 18l82 15l107 8l106 -6l178 -19q94 0 187 43q-27 78 -154 181l-211 168q-106 100 -106 192q0 129 129 221q119 82 256 82q125 0 194 -96q60 -88 60 -217l-2 -33l-6 -47q-16 6 -156 197q-58 81 -112 81h-1q-63 0 -133.5 -58t-70.5 -122q0 -78 116 -192l219 -189 q117 -109 117 -182q0 -66 -74 -108q-66 -33 -137 -33l-88 6l-151 14l-101 -8l-100 -8q-61 0 -103 24q-33 25 -45 86z" />
<glyph unicode="t" horiz-adv-x="1077" d="M98 608q10 98 185.5 166t175.5 168l-2 156q0 135 11 220t71 134q100 -43 100 -164q0 -33 -4 -62.5t-19 -88.5q-6 -33 -13 -73t-7 -69q0 -45 20 -77q23 -29 70 -29t144.5 30.5t146.5 30.5q39 0 63 -16l37 -31l-315 -78q-129 -31 -176 -215q-12 -55 -21.5 -161.5 t-9.5 -182.5q0 -125 -17.5 -215t-45.5 -141l-46 -23q-39 6 -54 35t-15 70q0 80 20 190q45 264 45 328q0 104 -24 215l-158 -72q-49 -20 -92 -32.5t-70 -12.5z" />
<glyph unicode="u" horiz-adv-x="1216" d="M74 473q0 84 201.5 286t277.5 202q39 0 57 -27q10 -16 13.5 -31.5t3.5 -38.5q0 -96 -27 -227q-59 -303 -59 -387q0 -86 18 -172l31 33l37 22l-13 8l84 131q86 125 101 158l133 303q111 233 162 254q23 -12 45 -43q18 -31 18 -61q0 -84 -12 -219q-2 -31 -19 -234 q-8 -104 -8 -135q0 -35 43 -156q23 -63 23 -98q0 -25 -8.5 -36t-32.5 -15q-98 0 -154 186l-51 275q-127 -248 -241.5 -395.5t-174.5 -147.5q-59 0 -91 62.5t-32 125.5q0 80 43 375q8 57 14.5 121.5t6.5 105.5l-4 27q-66 -25 -184.5 -150.5t-194.5 -144.5z" />
<glyph unicode="v" horiz-adv-x="677" d="M18 823l43 6q88 0 146 -127q12 -29 76 -258q43 -162 96 -208l168 485q61 180 82.5 195.5t46.5 19.5q31 0 48 -24.5t21 -59.5q0 -45 -40 -113l-66 -110q-33 -72 -72 -225.5t-66.5 -252t-41.5 -133.5q-20 -57 -46 -77.5t-57 -20.5q-18 0 -34 10l-27 27q-6 10 -49 173 t-60 200l-67 184q-72 197 -101 309z" />
<glyph unicode="w" horiz-adv-x="1118" d="M100 614q0 55 12.5 98.5t47.5 71.5h18q37 -41 50.5 -78.5t13.5 -78.5l-2 -68l-2 -53q0 -51 2 -96t11 -102.5t48 -131.5l190 418q74 156 109 156q68 0 109 -148l49 -301q31 -184 82 -242q72 170 100 293q6 29 18 111q25 164 30 210t28 70q18 25 51 27q37 0 57.5 -26.5 t20.5 -63.5q0 -57 -25 -135l-41 -133q-49 -256 -69 -310q-72 -221 -177 -221q-117 0 -202 346l-51 244l-127 -324q-111 -241 -194 -241h-1q-66 0 -109 196q-23 106 -35 235.5t-12 276.5z" />
<glyph unicode="x" horiz-adv-x="858" d="M59 942l50 8q96 0 219 -186l90 -156q141 229 222 340t155 111q25 0 47 -25q18 -24 18 -53q-25 -33 -43 -55q-49 -63 -131 -162q-174 -211 -174 -285q0 -63 90 -162l135 -141l2 -16l25 -35l53 -29l6 -20q0 -20 -8 -39l-16 -37q-109 20 -238 178q-80 102 -123 135 l-198 -366q-68 -121 -99 -125q-27 0 -44 22.5t-17 46.5q0 70 123 278t123 304q0 63 -74 166q-176 244 -193 303z" />
<glyph unicode="y" horiz-adv-x="1296" d="M0 629q43 98 182 213q147 123 248 123q72 -31 90.5 -57.5t18.5 -104.5q0 -33 -2 -71t-9 -81q-25 -203 -24 -256l2 -78l12 -63q127 90 213 293l135 338l45 20q63 -27 88 -184l19 -133l102 45q74 31 107 31t49 -19l20 -51l-14 -59l-51 -19l-49 -4h-39q-68 0 -103.5 -50 t-35.5 -116q0 -98 3 -138t13 -132q18 -182 28.5 -296t10.5 -159q0 -213 -33 -401q-45 -270 -143 -422q-123 -195 -330 -195q-160 0 -240 160q-59 125 -59 301q0 231 125 539l219 514q-127 0 -186 86q-43 68 -43 200l6 127l18 193l-2 65q0 25 -12 56q-35 -14 -162 -129 q-100 -90 -180 -90zM369 -971q0 -119 37 -209q49 -120 153 -120h2q145 0 248 190q76 145 119 397q30 184 30 340q0 225 -16 365q-8 80 -22.5 154.5t-40.5 166.5q-219 -213 -367 -587q-70 -184 -106.5 -359.5t-36.5 -337.5zM698 295q74 33 120 90t46 137l-6 66 q-61 -78 -98 -137q-53 -86 -62 -156z" />
<glyph unicode="z" horiz-adv-x="1296" d="M59 745q166 84 283 119q139 41 305 41q49 0 88 -10t82 -37q76 -45 76 -133q0 -94 -78 -180l-156 -144q-92 -86 -112 -157l51 -86l428 241q82 45 135 71t72 26l29 -11l34 -14q-14 -76 -172 -156l-278 -127q-147 -78 -148 -157l119 -148q137 -176 221 -315 q119 -209 119 -352q0 -141 -119 -211q-94 -53 -252 -54q-274 0 -432 80q-202 103 -202 351q0 160 63 284q25 47 133 193q80 106 109 204l-49 91q-33 55 -33 94q0 96 194.5 235.5t194.5 216.5q0 49 -56.5 87t-111.5 38q-68 0 -287 -94q-109 -45 -159 -45q-59 0 -91 59z M260 -592q0 -178 162 -282q141 -92 336 -93q111 0 188 56q82 63 82 172q0 123 -168 391q-175 282 -286 282h-1q-117 0 -221 -208q-92 -182 -92 -318z" />
<glyph unicode="{" horiz-adv-x="1056" d="M154 1094q0 139 129 262q63 59 132.5 90t145.5 31q53 0 96 -21q-182 -111 -217 -139q-121 -98 -121 -215q0 -94 146 -94q145 0 170 -76q-12 -35 -45 -78l-111 -104q51 -18 70 -35q39 -29 39 -68q-94 -139 -160 -297q-76 -176 -76 -319q0 -113 48.5 -178.5t158.5 -65.5 q57 0 137 37q171 80 222 80q0 -121 -127 -191q-106 -59 -242 -59q-172 0 -257 93t-85 265q0 166 80 381l92 219q-43 23 -62.5 39.5t-37.5 57.5q12 45 59 94l80 84l-19 20l-49 -6q-78 0 -137 56.5t-59 136.5z" />
<glyph unicode="|" horiz-adv-x="538" d="M211 -231q6 25 9 46t6 33.5t10 34.5l38 453q0 127 7.5 231.5t17.5 216.5v50v40q-4 29 -4 44l-8 153q0 41 1 74t7 63q18 88 84 88q41 0 59 -65q6 -27 8.5 -43.5t2.5 -57.5q0 -10 -9.5 -145t-9.5 -211l-37 -491q0 -94 -5 -178.5t-11 -180.5q0 -47 4 -67l14 -113 q0 -57 -24.5 -87t-83.5 -30q-39 0 -60 27q-16 27 -16 72v43z" />
<glyph unicode="}" horiz-adv-x="917" d="M160 -109q254 39 293 56q137 59 137 237q0 49 -10.5 96.5t-36.5 108.5l-105 238q0 25 23 55q10 14 30.5 38.5t47.5 53.5q-61 41 -90 70q-49 49 -50 100q0 59 111 178t111 181q0 94 -195 94q-188 0 -225 84l86 26q53 14 92 15q70 0 124 -8.5t124 -30.5q166 -54 166 -148 q0 -35 -22.5 -84t-74.5 -121l-137 -198l219 -60l-145 -276q0 -68 45 -212t45 -220q0 -147 -124 -265t-284 -118q-121 0 -155 110z" />
<glyph unicode="~" horiz-adv-x="1316" d="M158 508q0 84 162.5 224t259.5 140q137 0 215.5 -145t113.5 -145q90 0 178.5 192.5t165.5 216.5q23 -6 35 -28q6 -15 10 -52q0 -127 -131 -290q-139 -172 -268 -172q-78 0 -137 92q-125 199 -172 198q-80 0 -208 -154.5t-171 -154.5q-20 0 -39 25q-10 23 -14 53z" />
<glyph horiz-adv-x="2549" d="M367 1583h108v-508q0 -55 -20 -76q-8 -4 -17.5 -8t-15.5 -4v-10h194v10q-16 0 -29.5 7t-13.5 16q-4 12 -4 20q-6 31 -6 45v508h107v33h-129q0 4 -11.5 24.5t-11.5 30.5q0 6 -5 32t-5 32q0 35 11 60.5t32 47.5q18 16 48 29.5t60 13.5q55 0 119 -33q53 -25 64 -30 q29 -14 57 -35l-12 -8q33 -18 33 -45q-14 -10 -21 -11h-22v-32h204v32h-32q-8 0 -21.5 6.5t-32.5 16.5q-14 0 -29.5 10t-35.5 31q-45 47 -96.5 78.5t-88.5 42.5q-53 33 -129 33q-86 0 -141 -56q-16 -27 -29.5 -64.5t-13.5 -74.5q0 -39 23 -76q0 -14 8 -28.5t35 -26.5h-131 v-33zM397 565h217v-139h-77q-23 0 -41.5 -6t-32.5 -19q-25 -29 -25 -73q0 -49 33 -78q18 -20 72 -21q27 0 42 4.5t50 20.5q33 23 33 68v84h106v-152q0 -10 -3 -16.5t-9 -8.5q0 -27 -21 -26l119 -6q-14 6 -17 9l-9 9q-2 8 -4.5 21.5t-2.5 17.5v311h74v21h-504v-21zM489 322 q0 37 15 65q4 8 13 13.5t26 5.5l14 -5l57 -20v-68q0 -30 -18 -53q-20 -10 -45 -10q-31 0 -47 18q-2 4 -8.5 22.5t-6.5 31.5zM668 426v139h106v-139h-106zM680 1583h618v-119q-8 0 -20 11q-4 2 -12 10h-54q-18 0 -37.5 -5t-37.5 -26q-45 -20 -45 -55q-10 25 -21 37 q-16 20 -33 28q-37 20 -88 21q-96 0 -150.5 -54.5t-54.5 -193.5q0 -123 56 -195q14 -31 49 -48t80 -17q16 0 45 6t53 16q8 0 16.5 2.5t16.5 8.5q20 0 20 -23v-10h11v164h-11v-45q0 -14 -11 -29.5t-32 -34.5q-41 -23 -75 -22q-33 0 -53.5 10t-43.5 33q-33 63 -32 194 q0 59 7 97t25 67q33 53 84 53q59 0 99 -43q16 -16 24 -44.5t8 -63.5q0 -10 -6 -21.5t-14 -11.5l-23 -10h-10v-13h129v13h-20l-23 10v33q0 41 7 71.5t26 47.5q14 33 76 32q53 0 53 -32q8 -6 10 -11q12 -14 12 -22v-324l-22 -76q-8 -4 -17.5 -8t-15.5 -4v-10h197v10 q-18 0 -31.5 7t-13.5 16q-4 12 -4 20q-6 31 -7 45v508h109v33h-813v-33zM754 612h112v13h-12q-53 0 -53 67q0 33 20 53q10 18 53 19q41 0 72 -53q12 -35 19.5 -64t7.5 -61h-72v-21h72v-311q0 -35 -15 -45l-18 -6l119 -6q-14 6 -17.5 9t-9.5 9q-2 8 -4 21.5t-2 17.5v311h66 v21h-66q0 55 -33 125q-41 74 -119 73q-53 0 -73 -34q-20 -20 -21 -66v-12l8 -21q0 -27 -26 -26h-8v-13zM1079 565h66v-311q0 -33 -12 -45l-21 -6l119 -6q-16 6 -20.5 9t-6.5 10t-4 20.5t-2 17.5v311h66v21h-78q-4 6 -6 10q-8 16 -9 22l-6 39q0 18 7.5 37t19.5 31 q25 25 65 25q23 0 35.5 -3.5t38.5 -15.5l72 -39l-8 -8q20 -8 20 -27l-12 -6h-12v-18h125v18h-21l-33 15q-16 0 -39 26q-27 27 -60.5 47.5t-51.5 24.5q-12 8 -37 14t-43 6q-51 0 -86 -34q-12 -18 -19.5 -40t-7.5 -44q0 -23 15 -48q0 -20 24 -32h-78v-21zM1264 565h231v-71 h-119q-33 0 -53 -21q-12 -12 -12 -47q0 -27 20 -45q29 -14 45 -14h68q39 0 58.5 -19.5t19.5 -52.5q0 -14 -8.5 -30.5t-18.5 -28.5q-18 -20 -65 -21q-25 0 -46.5 7t-41 17.5t-29.5 27t-10 28.5v12l-7 -98l7 20h8q18 -10 38.5 -18t32.5 -8l54 -6q39 0 61.5 5t43 19.5t30.5 37 t10 42.5q0 18 -7 36.5t-18.5 29t-38 15.5t-34.5 5h-80q-23 0 -33 14l-8 25q0 18 14 33q0 14 27 14h151v92h86l-6 21h-370v-21zM1483 1583h616v-129h-401q-33 0 -33 23v20h-10v-141h10v22q0 16 22.5 29.5t55.5 13.5q41 0 78 -17.5t51 -47.5q23 -14 38 -50t15 -69 q0 -96 -53 -129q-16 -18 -50 -30.5t-69 -12.5t-71.5 15.5t-69.5 47.5q-66 49 -66 119h-10v-172h10v10q0 14 2 20.5t8 12.5l23 -10q35 -23 71 -44.5t48 -21.5q14 0 38.5 -5t26.5 -5q45 0 84 11.5t79 34t63.5 65.5t23.5 94q0 63 -55 119q-49 35 -68 45q-27 16 -39 20h248v-346 q0 -27 -10 -53q-2 -8 -10 -23q-8 -4 -17.5 -8t-15.5 -4v-10h192v10q-16 0 -29.5 7t-13.5 16q-4 12 -4 20q-6 31 -6 45v508h119v33h-821v-33zM1614 565h121q39 0 58 -19.5t19 -51.5q0 -18 -8 -36t-16 -24q-25 -14 -68 -14h-59v-60q0 -29 12.5 -56.5t32.5 -49.5 q23 -8 54.5 -16.5t58.5 -8.5t49 5.5t44.5 17.5t37 29.5t28.5 46.5v73l-6 -26v-15q-25 -57 -59 -86q-35 -25 -94 -24q-37 0 -72 24q-6 6 -12 17q-14 20 -15 37v73h39q33 0 47.5 3.5t32.5 15.5q12 14 19.5 30.5t7.5 36.5q0 33 -21 52q-4 6 -17 13t-22 13h172v-311 q0 -35 -14 -45l-20 -6l120 -6q-16 6 -20 9t-6 10t-4 20.5t-2 17.5v311h71v21h-489v-21zM2089 565h74v-311q0 -33 -13 -45l-20 -6l119 -6q-16 6 -20.5 9t-6.5 10t-4 20.5t-2 17.5v311h72v21h-199v-21z" />
<glyph unicode="&#xa1;" horiz-adv-x="577" d="M160 119q0 20 2 50t8 62l25 150q6 41 10 88t4 100l4 283l6 51l14 86q0 20 -3 32.5t-13 41.5q-2 8 -9 37.5t-7 36.5q0 31 19.5 62.5t51.5 33.5q37 0 69 -59.5t32 -104.5q0 -55 -2 -86q-10 -156 -11 -172q0 -117 -9 -221.5t-19 -208.5l4 -111l6 -82q0 -59 -6 -96 q-12 -61 -43 -84h-60h-8q-33 0 -51 35q-6 18 -10 35.5t-4 40.5zM172 1442l68 96q49 61 92 61q25 0 51.5 -29.5t26.5 -58.5q0 -43 -58 -81q-33 -20 -100 -48l-41 27z" />
<glyph unicode="&#xa2;" horiz-adv-x="937" d="M59 330q0 121 74 297q82 195 197 266l-2 49q0 82 6 111q16 72 74 71q37 0 51 -53l8 -82l-2 -65q102 -18 158 -164q41 -113 41 -240l-7 -90q-106 0 -163 143q-2 8 -13 41q-23 82 -28 107q0 -131 -22.5 -355.5t-22.5 -289.5q72 14 272 117q166 84 235 83l23 -2 q0 -96 -190 -194q-154 -74 -340 -111l12 -110q0 -47 -23 -70q-18 -25 -69 -25q-37 0 -51.5 23t-14.5 57q0 27 8 60l13 51q-125 0 -183 127q-41 94 -41 248zM188 285q0 -72 25 -129.5t84 -77.5l25 330l16 299q-66 -74 -108 -199t-42 -223z" />
<glyph unicode="&#xa3;" horiz-adv-x="1097" d="M12 504v71l39 74q10 18 28.5 32.5t39.5 14.5q25 0 51 -26v473q0 70 80 112q94 47 278 48q90 0 183 -50l69 -49l-86 25q-98 25 -166 24q-129 0 -184 -88q-39 -66 -39 -178v-72v-49q-4 -33 -4 -45l-14 -264l30 -6l27 6q31 12 49 41l43 57v-71l-51 -68q-16 -20 -41 -31 l-29 -6l-28 6q0 -100 15 -182t56 -166l314 109q238 78 313 78q74 0 113 -70q-31 -39 -58.5 -49t-66.5 -10h-55q-59 0 -292 -96.5t-315 -96.5t-118 139q-25 98 -25 267v63l2 57v70q-33 27 -53 27q-12 0 -33 -13.5t-39 -46.5z" />
<glyph unicode="&#xa4;" horiz-adv-x="1024" d="M37 373q-16 16 20 61l39 43l35 33q-35 82 -35 180q0 74 24.5 166t74.5 178q-74 80 -105 123q-27 47 -27 68q0 16 9.5 25.5t29.5 11.5q35 0 93 -52l67 -67l4 -10q35 37 79 62.5t95 25.5q27 0 68 -13l117 -39l39 -4l47 2q29 0 45 4l63 -4l51 39q53 33 78 33q13 0 23 -8 q12 -12 12 -31q0 -33 -59 -98q29 -51 28 -144q0 -90 -41 -184q-37 -100 -108 -186q61 -70 98 -123q23 -35 34 -61.5t11 -47.5q0 -25 -16 -41t-62 21l-43 39l-110 119q-78 -70 -168 -113q-90 -39 -180 -39q-47 0 -94.5 19.5t-73.5 46.5q-35 -23 -67 -37.5t-54 -14.5 q-25 0 -41 17zM188 690q0 -104 45 -182q47 -74 115 -74q170 0 328 131q203 170 203 461q0 35 -99 53q-47 8 -118.5 12.5t-182.5 4.5q-119 0 -213 -156q-78 -133 -78 -250z" />
<glyph unicode="&#xa5;" d="M53 1155q0 12 19 41q18 23 37 27q18 0 41 -15l34 -32q37 -39 86 -111l136 -201l69 -82l123 -135q92 274 117 326q104 246 188 246q23 0 44.5 -16.5t25.5 -47.5q0 -53 -64 -149l-51 -84q-41 -86 -100 -254l-58 -160l127 16l41 -6q12 -2 17 -24q0 -41 -47 -66 q-39 -14 -95 -14l-73 4l-27 -82l70 8l73 8l41 -6q12 -2 17 -24q0 -41 -47 -66q-39 -14 -95 -14l-88 6l-18 -60l-14 -90q-6 -59 -25.5 -99t-45.5 -63.5t-58 -23.5q-33 0 -54.5 21.5t-21.5 54.5q0 29 10 61q4 20 20.5 73.5t45.5 141.5q-8 0 -26.5 -2t-51.5 -8l-47 -4 q-33 0 -53.5 18.5t-28.5 53.5l82 18q39 8 56 9t28 1l67 -4l31 90q-8 0 -30.5 -2t-57.5 -8l-53 -4q-33 0 -53.5 18.5t-28.5 53.5l82 18q39 8 56 9t28 1l53 -2q-33 70 -150 215l-202 246q-100 129 -101 174z" />
<glyph unicode="&#xa6;" horiz-adv-x="538" d="M135 -113q0 20 8 39l17 41l39 230q25 176 24 227l-6 74l-6 71q0 61 20.5 88t69.5 27q41 0 59 -33q7 -14 11 -51q0 -80 -21 -217l-51 -395l8 -47l10 -43q0 -31 -23.5 -45.5t-82.5 -14.5q-39 0 -56.5 12.5t-19.5 36.5zM229 803l7 31l16 34q16 47 37 187l20 192l-2 43 l-10 76q0 41 8 57q18 37 76 37q41 0 55 -26l8 -43q0 -61 -32.5 -261t-32.5 -245l8 -41l10 -33q0 -49 -100 -49q-37 0 -53 10q-10 10 -15 31z" />
<glyph unicode="&#xa7;" horiz-adv-x="1181" d="M164 -145q6 12 31.5 30.5t44.5 18.5l231 -33q51 -8 91 -12t75 -4q66 0 108 12q66 18 66 74q0 86 -137 204l-256 222q-139 150 -139 301q0 61 23.5 125.5t68.5 117.5q-33 47 -58 107q-20 61 -20 119q0 119 76 215q84 106 198 106q143 0 265 -121t122 -260l-2 -37l-8 -32 q-51 8 -142 180t-216 172q-68 0 -122 -76t-54 -147q0 -113 137 -258l256 -242q137 -141 137 -240q0 -80 -82 -118q-61 -31 -158 -31q111 -100 162 -166q70 -92 70 -166q0 -84 -105 -127q-68 -25 -176 -25l-80 -2l-94 -2q-117 0 -194.5 18.5t-118.5 76.5zM397 670 q0 -82 64 -172q43 -59 147 -164l39 2q66 0 109 12q65 19 65 74q0 80 -127 188l-250 215q-18 -29 -32.5 -73.5t-14.5 -81.5z" />
<glyph unicode="&#xa8;" horiz-adv-x="835" d="M78 1372q0 61 50 111.5t118 50.5q49 0 80.5 -38t31.5 -91q0 -61 -47 -115q-43 -53 -108 -53q-51 0 -90 39q-35 41 -35 96zM463 1364q0 61 50 111.5t118 50.5q49 0 80.5 -38t31.5 -91q0 -61 -47 -115q-43 -53 -108 -53q-51 0 -90 39q-35 41 -35 96z" />
<glyph unicode="&#xa9;" horiz-adv-x="1710" d="M76 551q0 172 76 391q84 246 215 399q154 182 333 183q395 0 637 -146q273 -164 273 -467q0 -188 -51 -368q-74 -262 -228 -420q-201 -201 -522 -201q-254 0 -493.5 206t-239.5 423zM190 551q0 -133 209 -320.5t375 -187.5q328 0 510 176q141 135 193 371q28 133 28 321 q0 240 -213 361q-197 111 -592 110q-215 0 -374 -309q-135 -264 -136 -522zM496 586q0 154 86 399q102 293 221 293q82 0 176 -109q66 -78 113 -184l-39 -18l-37 -4q-33 0 -81 105.5t-108 105.5q-66 0 -161 -246q-84 -227 -84 -324q0 -121 58 -206t181 -85q104 0 239.5 98.5 t182.5 98.5q41 0 41 -39q0 -68 -225 -162q-213 -88 -299 -88q-133 0 -207 119q-57 102 -57 246z" />
<glyph unicode="&#xaa;" horiz-adv-x="620" d="M86 965q0 109 40 242.5t120 170.5q47 -18 100 -67l12 -2l27 10q29 0 41 -17.5t12 -46.5l-2 -43v-51v-57q0 -63 17.5 -85t91.5 -32q-2 -29 -22.5 -50.5t-53.5 -21.5q-45 0 -76 50q-6 10 -47 168q-51 -104 -80 -152q-61 -96 -127 -96q-31 0 -42 23.5t-11 56.5zM152 995 q0 -35 4 -47q25 23 50 54.5t52 68.5q61 90 61 141q0 23 -18 58l-35 49h-10q-23 -23 -43 -55.5t-27 -71.5l-20 -98z" />
<glyph unicode="&#xab;" horiz-adv-x="1769" d="M86 399q0 37 102 179q84 119 205 268l162 196q66 78 128 118t105 40q49 0 91 -39q-61 -74 -116.5 -133t-86.5 -92l-209 -221q-117 -131 -186 -240q102 -57 301 -115l313 -81q53 -12 80 -31q47 -29 47 -70q0 -27 -16 -49q-10 -18 -39 -23q-203 78 -408 144.5t-319 66.5 q-61 0 -99 13q-55 18 -55 69zM719 516q0 37 102 178q84 119 205 269l162 196q66 78 128 118t105 40q49 0 90 -39q-61 -74 -116.5 -133.5t-85.5 -91.5l-209 -222q-117 -131 -187 -239q102 -57 301 -115l314 -82q53 -12 80 -30q47 -29 47 -70q0 -27 -17 -49q-10 -18 -39 -23 q-203 78 -407.5 144.5t-319.5 66.5q-61 0 -98 12q-55 18 -55 70z" />
<glyph unicode="&#xad;" d="M80 629l98 26q55 12 103 13l102 -6l176 -15q25 0 49.5 4t38.5 6l86 13l45 -6q21 -2 23 -35q0 -61 -58 -88q-47 -20 -112 -21q-49 0 -178 21l-107 10q-43 0 -63 -4l-105 -15q-41 0 -65 25q-20 25 -33 72z" />
<glyph unicode="&#xae;" horiz-adv-x="1710" d="M76 551q0 172 76 391q84 246 215 399q154 182 333 183q395 0 637 -146q273 -164 273 -467q0 -188 -51 -368q-74 -262 -228 -420q-201 -201 -522 -201q-254 0 -493.5 206t-239.5 423zM190 551q0 -133 209 -320.5t375 -187.5q328 0 510 176q141 135 193 371q28 133 28 321 q0 240 -213 361q-197 111 -592 110q-215 0 -374 -309q-135 -264 -136 -522zM545 356q0 43 14 144l8 84v473q0 113 103 176q88 53 213 53q111 0 170 -56t59 -167q0 -117 -73.5 -231.5t-186.5 -174.5l104 -127q33 -43 76 -79l92 -76l33 -37q19 -23 19 -43l-13 -37l-35 -18 q-37 0 -189.5 172t-238.5 172q-25 0 -42 -23.5t-17 -79.5q0 -14 2 -38.5t8 -55.5l13 -84q0 -39 -7 -57q-12 -31 -45 -31q-43 0 -57 39q-10 45 -10 102zM664 868q0 -72 12 -123t49 -51q90 0 196.5 145.5t106.5 235.5q0 53 -42 94t-103 41q-111 0 -168 -82q-49 -72 -49 -186 l-2 -39v-35z" />
<glyph unicode="&#xaf;" horiz-adv-x="770" d="M80 1374l65 19q37 10 74 10h57q31 -6 48 -8l90 -6l55 6l66 8q45 0 47 -29q0 -41 -35 -59q-16 -8 -35.5 -12.5t-46.5 -4.5q-14 0 -42 2.5t-65 8.5l-92 12l-73 -10l-46 -4q-29 0 -43 15t-24 52z" />
<glyph unicode="&#xb0;" horiz-adv-x="528" d="M154 911q0 33 2 49.5t17 68.5t36.5 70.5t44.5 18.5q31 0 37 4l33 15l34 6q31 0 42.5 -23.5t11.5 -60.5q0 -84 -39 -164q-49 -98 -123 -98q-45 0 -70.5 31.5t-25.5 82.5zM205 938q0 -39 9 -62.5t40 -25.5q43 0 79 68.5t36 115.5q0 33 -13 58q-12 -8 -81.5 -32t-69.5 -122z " />
<glyph unicode="&#xb1;" d="M27 799q297 37 325 65q41 37 41 291q0 51 8.5 79t42.5 56q45 -25 62.5 -65.5t17.5 -98.5l-2 -49v-49q0 -45 4 -63l21 -54l37 -12l43 -2l73 6l76 6q33 0 58.5 -14t29.5 -45q0 -41 -39 -55q-18 -6 -42.5 -10.5t-59.5 -4.5h-45l-39 2q-53 0 -90 -24q-33 -27 -33 -80 q0 -18 2 -41t8 -47l27 -150q0 -45 -19.5 -73.5t-66.5 -28.5q-37 0 -51.5 48t-14.5 114l2 71l3 52q0 53 -19 82q-25 35 -78 34q-8 0 -33.5 -2t-64.5 -8l-59 -4q-51 0 -79 14.5t-46 59.5zM113 250l98 26q55 12 102 13l103 -6l176 -15q25 0 49.5 4t38.5 7l86 12l45 -6 q21 -2 23 -35q0 -61 -58 -88q-47 -20 -112 -21q-49 0 -179 21l-106 10q-43 0 -64 -4l-104 -14q-41 0 -66 24q-20 25 -32 72z" />
<glyph unicode="&#xb2;" horiz-adv-x="552" d="M-2 811q0 10 190 231q90 106 91 201q0 45 -37 45t-86 -31l-88 -67q-12 0 -20.5 8t-12.5 27q0 47 74 94q74 43 135 43q49 0 71.5 -27.5t22.5 -83.5q0 -104 -76 -213q-31 -45 -156 -178l33 -8l39 -2l111 8l110 8q74 1 127 -26l-10 -11q0 -20 -22 -26l-37 -2l-150 -6 l-233 -19l-54 6q-23 6 -22 29z" />
<glyph unicode="&#xb3;" horiz-adv-x="485" d="M-25 811q23 8 68 16l86 7l37 -3h39q88 0 124 13.5t36 48.5q0 59 -120 112.5t-124 81.5q0 29 82 103t92 102l-10 11h-11q-59 0 -122 -33q-98 -51 -115 -56q-31 2 -33 33q0 43 113.5 81t165.5 38q41 0 71.5 -13.5t32.5 -45.5q0 -37 -76 -115l-96 -96l139 -80 q86 -62 86 -121q0 -92 -149 -119q-66 -12 -225 -12q-63 0 -91 47z" />
<glyph unicode="&#xb4;" horiz-adv-x="745" d="M162 1147q0 25 16 49l139 156l60 106q25 45 41 62q31 37 61 36l23 -6q39 -23 39 -65l-6 -39l-33 -68q-76 -131 -129 -190q-84 -90 -193 -115l-14 43z" />
<glyph unicode="&#xb5;" horiz-adv-x="1216" d="M74 473q0 84 201.5 286t277.5 202q39 0 57 -27q10 -16 13.5 -31.5t3.5 -38.5q0 -96 -27 -227q-59 -303 -59 -387q0 -86 18 -172l31 33l37 22l-13 8l84 131q86 125 101 158l133 303q111 233 162 254q23 -12 45 -43q18 -31 18 -61q0 -84 -12 -219q-2 -31 -19 -234 q-8 -104 -8 -135q0 -35 43 -156q23 -63 23 -98q0 -25 -8.5 -36t-32.5 -15q-98 0 -154 186l-51 275q-100 -199 -176 -318q-147 -238 -227 -237l-56 49l13 -234q0 -29 -31 -51q-16 -10 -26.5 -14t-47.5 -15l-4 66l-2 55l6 205l6 184q0 43 8.5 114t26.5 163q35 190 35 280 l-4 27q-66 -25 -184.5 -150.5t-194.5 -144.5z" />
<glyph unicode="&#xb6;" horiz-adv-x="1161" d="M98 1042q0 133 156 220q133 72 281 71q98 0 190 -37q121 -49 121 -133l-17 -45q-14 -8 -55 -14l-65 -4l32 -340q0 -53 5.5 -155.5t5.5 -133.5v-55q0 -166 -15 -252q-25 -152 -88 -152q-41 0 -66.5 34t-25.5 77q0 35 32 124t32 132q0 139 -136 254l-249 172 q-137 106 -138 237zM242 1059q0 -96 98 -193l106 -84l39 -24q33 -18 43 -33h21l20 -18q27 116 27 229q0 109 -27 174q-37 96 -131 96q-74 0 -135 -38t-61 -109zM788 57l7 52q8 37 16 55q16 78 37 301l20 311l-2 74l-8 121q0 82 18.5 117.5t65.5 35.5q31 0 46.5 -27.5 t15.5 -84.5q0 -94 -19 -291l-45 -528l8 -62l8 -61q0 -37 -23.5 -58.5t-74.5 -21.5q-37 0 -55 18q-10 16 -15 49z" />
<glyph unicode="&#xb7;" horiz-adv-x="491" d="M111 756q0 61 50 111.5t118 50.5q49 0 80.5 -38.5t31.5 -91.5q0 -61 -47 -114q-43 -53 -108 -53q-51 0 -91 38q-35 41 -34 97z" />
<glyph unicode="&#xb8;" horiz-adv-x="565" d="M35 -295l4 27l102 6q37 0 80 26q72 43 119 148l70 213l20 4q35 0 66 -43l8 -35q0 -90 -109 -258q-100 -158 -145 -184l-45 -21q-16 -6 -49 -10q-25 0 -48.5 13.5t-42 40t-20.5 55.5z" />
<glyph unicode="&#xb9;" horiz-adv-x="262" d="M49 723v119q0 92 2 166.5t11.5 163t46.5 88.5q18 0 29.5 -18.5t15.5 -41.5q0 -39 -19.5 -112.5t-19.5 -108.5l6 -133q0 -74 16 -103l17 -30l8 -25q0 -20 -19 -39q-16 -12 -43 -16q-37 0 -45 33z" />
<glyph unicode="&#xba;" horiz-adv-x="622" d="M150 1124q0 55 24.5 142.5t54 112t64.5 24.5q29 0 47 6l39 14q18 6 47 11q41 0 59 -33q15 -37 15 -80q0 -55 -12.5 -108.5t-41.5 -110.5q-66 -133 -165 -133q-61 0 -99 45q-33 49 -32 110zM219 1159q0 -43 12.5 -81t53.5 -38q59 0 107 93.5t48 154.5q0 45 -14 76 q-41 -14 -72.5 -25.5t-62.5 -25.5q-72 -35 -72 -154z" />
<glyph unicode="&#xbb;" horiz-adv-x="1785" d="M139 1118l21 21l20 -21l51 17q14 0 140 -107l245 -213q141 -117 203 -149q57 -27 80 -45q47 -37 47 -78q0 -35 -45 -72q-20 -14 -82 -41q-119 -45 -233 -125q-76 -53 -207 -168l-74 -94q-53 -68 -92 -68q-25 0 -44 28t-19 54q0 78 149 191l420 319q-117 74 -326 258 q-233 209 -254 293zM778 1118l21 21l20 -21l51 17q14 0 140 -107l245 -213q141 -117 203 -149q57 -27 80 -45q47 -37 47 -78q0 -35 -45 -72q-20 -14 -82 -41q-119 -45 -233 -125q-76 -53 -207 -168l-74 -94q-53 -68 -92 -68q-25 0 -44.5 28t-19.5 54q0 78 150 191l420 319 q-117 74 -326 258q-233 209 -254 293z" />
<glyph unicode="&#xbc;" horiz-adv-x="1294" d="M70 -76q16 80 237 408q201 301 418 581q229 297 266 297q18 0 29.5 -12t11.5 -39q-6 -29 -22 -49l-33 -41q-240 -272 -438 -582l-299 -448l-39 -68q-25 -39 -51 -55q-31 -29 -68 -37q-18 8 -12 45zM250 733v119q0 92 2 167t11 163t46 88q18 0 29.5 -18.5t15.5 -41.5 q0 -39 -19.5 -112.5t-19.5 -108.5l7 -133q0 -74 16 -102l16 -31l8 -25q0 -20 -18 -39q-16 -12 -43 -16q-37 0 -45 33zM684 221q0 158 18.5 258.5t53.5 114.5q25 -6 37 -37l-33 -121q-16 -61 -17 -112v-42.5t5.5 -45t23.5 -62.5l113 37q68 31 67 84q0 76 11 117q18 82 65 82 q12 0 20.5 -12.5t12.5 -30.5q0 -29 -19.5 -86.5t-19.5 -88.5v-20l72 4l57 6q31 0 51 -10q23 -6 31 -31q-12 -31 -39 -30l-35 4l-26 4q-88 0 -115 -27q-23 -27 -23 -94v-53q0 -57 -32 -60q-27 0 -39 47q-10 51 -11 107v31h-10q-14 0 -92 -37q-39 -16 -61 -21q-35 0 -54 37 q-12 37 -12 88z" />
<glyph unicode="&#xbd;" horiz-adv-x="1247" d="M66 -76q16 80 237 408q201 301 418 581q229 297 266 297q18 0 29.5 -12t11.5 -39q-6 -29 -22 -49l-33 -41q-240 -272 -438 -582l-299 -448l-39 -68q-25 -39 -52 -55q-31 -29 -67 -37q-18 8 -12 45zM164 743v119q0 92 2 167t11 163t46 88q18 0 29.5 -18.5t15.5 -40.5 q0 -39 -19.5 -113t-19.5 -109l7 -133q0 -74 16 -102l16 -31l8 -24q0 -20 -18 -39q-16 -12 -43 -17q-37 0 -45 33zM643 33q0 10 191 231q90 106 90 201q0 27 -13 37l-12 6l-12 2q-37 0 -86 -31l-88 -67q-12 0 -25 12l-8 22q0 47 74 95q74 43 135 43q49 0 71.5 -28t22.5 -83 q0 -104 -76 -213q-31 -45 -155 -178l32 -8l39 -2l111 8l110 8q74 0 127 -27l-10 -10q0 -20 -22 -26l-37 -2l-150 -7l-233 -18l-53 6q-23 6 -23 29z" />
<glyph unicode="&#xbe;" horiz-adv-x="1333" d="M49 784q23 8 68 17l86 6l37 -2h39q88 0 123.5 13t35.5 48q0 59 -119.5 112.5t-123.5 82.5q0 29 81.5 102.5t92.5 102.5l-11 10h-10q-59 0 -123 -33q-98 -51 -114 -55q-31 2 -33 33q0 43 113.5 80.5t164.5 37.5q41 0 72 -13t33 -46q0 -37 -76 -115l-96 -96l139 -80 q86 -62 86 -121q0 -92 -149 -118q-66 -12 -226 -13q-63 0 -90 47zM70 -76q16 80 237 408q201 301 418 581q229 297 266 297q18 0 29.5 -12t11.5 -39q-6 -29 -22 -49l-33 -41q-240 -272 -438 -582l-299 -448l-39 -68q-25 -39 -51 -55q-31 -29 -68 -37q-18 8 -12 45zM684 221 q0 158 18.5 258.5t53.5 114.5q25 -6 37 -37l-33 -121q-16 -61 -17 -112v-42.5t5.5 -45t23.5 -62.5l113 37q68 31 67 84q0 76 11 117q18 82 65 82q12 0 20.5 -12.5t12.5 -30.5q0 -29 -19.5 -86.5t-19.5 -88.5v-20l72 4l57 6q31 0 51 -10q23 -6 31 -31q-12 -31 -39 -30l-35 4 l-26 4q-88 0 -115 -27q-23 -27 -23 -94v-53q0 -57 -32 -60q-27 0 -39 47q-10 51 -11 107v31h-10q-14 0 -92 -37q-39 -16 -61 -21q-35 0 -54 37q-12 37 -12 88z" />
<glyph unicode="&#xbf;" horiz-adv-x="1056" d="M139 172q0 139 117 334l209 299q23 35 39 92l41 162q61 -16 96 -44t35 -85q0 -80 -103 -213l-200 -258q-106 -156 -107 -264q0 -41 31 -64q35 -20 82 -20q98 0 227 86l256 180l43 -6l39 -19v-18l-18 -21q-23 -106 -244 -215q-201 -98 -334 -98q-92 0 -147 37 q-61 43 -62 135zM446 1315l19 78q2 12 37 28l55 15q90 0 90 -88q0 -61 -72 -62l-61 6q-14 4 -30.5 9.5t-37.5 13.5z" />
<glyph unicode="&#xc0;" horiz-adv-x="1157" d="M170 104q0 25 80 308q41 141 76.5 266t81.5 274l110 367q12 49 41 77.5t78 28.5q39 0 74 -18q18 -10 32.5 -21.5t34 -31t82.5 -213.5q31 -90 76 -238q20 -68 45 -149q53 -186 57 -224l-20 -20q0 -68 37 -160q84 -211 84 -260q0 -39 -14.5 -64.5t-53.5 -37.5 q-78 20 -118 274t-167 254q-238 0 -340 -123q-33 -41 -94 -229q-37 -123 -135 -123q-25 0 -37 18q-6 14 -10 45zM170 1805q0 35 12 71q39 0 115 -57q164 -131 184 -139l55 -8q31 0 66 -11q29 -4 51 -14q37 -18 37 -51l-4 -27l-4 -26q-135 0 -305 69q-207 84 -207 193z M459 588l35 -6l55 -4q150 0 221 51q61 42 61 112q0 80 -41.5 205t-91.5 211l-41 -39l-94 -246z" />
<glyph unicode="&#xc1;" horiz-adv-x="1157" d="M170 104q0 25 80 308q41 141 76.5 266t81.5 274l110 367q12 49 41 77.5t78 28.5q39 0 74 -18q18 -10 32.5 -21.5t34 -31t82.5 -213.5q31 -90 76 -238q20 -68 45 -149q53 -186 57 -224l-20 -20q0 -68 37 -160q84 -211 84 -260q0 -39 -14.5 -64.5t-53.5 -37.5 q-78 20 -118 274t-167 254q-238 0 -340 -123q-33 -41 -94 -229q-37 -123 -135 -123q-25 0 -37 18q-6 14 -10 45zM459 588l35 -6l55 -4q150 0 221 51q61 42 61 112q0 80 -41.5 205t-91.5 211l-41 -39l-94 -246zM619 1620q0 25 16 49l139 156l60 106q25 45 41 62q31 37 61 36 l23 -6q39 -23 39 -65l-6 -39l-33 -68q-76 -131 -129 -190q-84 -90 -193 -115l-14 43z" />
<glyph unicode="&#xc2;" horiz-adv-x="1157" d="M170 104q0 25 80 308q41 141 76.5 266t81.5 274l110 367q12 49 41 77.5t78 28.5q39 0 74 -18q18 -10 32.5 -21.5t34 -31t82.5 -213.5q31 -90 76 -238q20 -68 45 -149q53 -186 57 -224l-20 -20q0 -68 37 -160q84 -211 84 -260q0 -39 -14.5 -64.5t-53.5 -37.5 q-78 20 -118 274t-167 254q-238 0 -340 -123q-33 -41 -94 -229q-37 -123 -135 -123q-25 0 -37 18q-6 14 -10 45zM392 1599q0 12 83 163.5t105.5 175.5t32.5 30q20 12 47 14q68 0 117 -100l61 -146l92 -110q31 -37 31 -66q0 -20 -19.5 -33.5t-48.5 -13.5q-20 0 -35.5 9 t-19.5 16l-176 274q-31 -25 -76 -108q-78 -147 -133 -148q-29 0 -45 9t-16 34zM459 588l35 -6l55 -4q150 0 221 51q61 42 61 112q0 80 -41.5 205t-91.5 211l-41 -39l-94 -246z" />
<glyph unicode="&#xc3;" horiz-adv-x="1157" d="M170 104q0 25 80 308q41 141 76.5 266t81.5 274l110 367q12 49 41 77.5t78 28.5q39 0 74 -18q18 -10 32.5 -21.5t34 -31t82.5 -213.5q31 -90 76 -238q20 -68 45 -149q53 -186 57 -224l-20 -20q0 -68 37 -160q84 -211 84 -260q0 -39 -14.5 -64.5t-53.5 -37.5 q-78 20 -118 274t-167 254q-238 0 -340 -123q-33 -41 -94 -229q-37 -123 -135 -123q-25 0 -37 18q-6 14 -10 45zM356 1585q0 37 95 104.5t149 67.5q78 0 139 -92q27 -43 51 -45q53 0 102.5 90t96.5 102q22 -6 26 -37q0 -59 -77.5 -139t-153.5 -80q-47 0 -113 92 q-14 20 -30.5 32.5t-34.5 12.5q-49 0 -120 -70.5t-99 -74.5q-31 0 -31 37zM459 588l35 -6l55 -4q150 0 221 51q61 42 61 112q0 80 -41.5 205t-91.5 211l-41 -39l-94 -246z" />
<glyph unicode="&#xc4;" horiz-adv-x="1157" d="M170 104q0 25 80 308q41 141 76.5 266t81.5 274l110 367q12 49 41 77.5t78 28.5q39 0 74 -18q18 -10 32.5 -21.5t34 -31t82.5 -213.5q31 -90 76 -238q20 -68 45 -149q53 -186 57 -224l-20 -20q0 -68 37 -160q84 -211 84 -260q0 -39 -14.5 -64.5t-53.5 -37.5 q-78 20 -118 274t-167 254q-238 0 -340 -123q-33 -41 -94 -229q-37 -123 -135 -123q-25 0 -37 18q-6 14 -10 45zM332 1638q0 61 50 111.5t118 50.5q49 0 80.5 -38t31.5 -91q0 -61 -47 -115q-43 -53 -108 -53q-51 0 -90 39q-35 41 -35 96zM459 588l35 -6l55 -4q150 0 221 51 q61 42 61 112q0 80 -41.5 205t-91.5 211l-41 -39l-94 -246zM717 1630q0 61 50 111.5t118 50.5q49 0 80.5 -38t31.5 -91q0 -61 -47 -115q-43 -53 -108 -53q-51 0 -90 39q-35 41 -35 96z" />
<glyph unicode="&#xc5;" horiz-adv-x="1157" d="M170 104q0 25 80 308q41 141 76.5 266t81.5 274l110 367q12 49 41 77.5t78 28.5q39 0 74 -18q18 -10 32.5 -21.5t34 -31t82.5 -213.5q31 -90 76 -238q20 -68 45 -149q53 -186 57 -224l-20 -20q0 -68 37 -160q84 -211 84 -260q0 -39 -14.5 -64.5t-53.5 -37.5 q-78 20 -118 274t-167 254q-238 0 -340 -123q-33 -41 -94 -229q-37 -123 -135 -123q-25 0 -37 18q-6 14 -10 45zM459 588l35 -6l55 -4q150 0 221 51q61 42 61 112q0 80 -41.5 205t-91.5 211l-41 -39l-94 -246zM516 1655q0 57 22.5 134t55.5 101q12 12 32 19l29 2q20 0 39 8 l39 14l39 9q39 0 57 -35q10 -25 10 -70q0 -100 -49 -203q-59 -123 -153 -122q-57 0 -89 41t-32 102zM579 1688q0 -57 17.5 -83t44.5 -28q55 0 104 88q41 78 41 141q0 41 -14 72q-45 -18 -80 -32.5t-74 -32.5q-39 -35 -39 -125z" />
<glyph unicode="&#xc6;" horiz-adv-x="1738" d="M41 82l4 33l143 297l273 540l188 367q25 47 58.5 76.5t83.5 29.5q37 0 67.5 -18t56.5 -53q6 -8 21 -90l18 -131q102 53 264 80.5t255 27.5q70 0 110 -20q41 -17 66 -80l-74 -11l-92 -2q-223 0 -291 -20q-141 -43 -141 -203q0 -57 15 -96t71 -39q53 0 144 42t138 42 q63 0 90 -66l-319 -108q-164 -78 -164 -248q0 -63 12 -135l33 -156l229 189q168 125 250 125q35 0 58.5 -7.5t23.5 -31.5q-2 -6 -5 -13.5t-13 -21.5l-27 -29q-31 -31 -121 -76q-45 -23 -77.5 -42t-51.5 -35l-75 -68l-72 -68q-53 -45 -89 -60t-65 -15q-43 0 -71 24 q-29 -20 -47 -24q-35 12 -54 51q-14 43 -14 108l4 111l4 86q0 84 -22.5 128t-90.5 44q-238 0 -366 -123q-45 -43 -143 -229q-66 -123 -160 -123q-35 0 -35 41zM434 588l35 -8l53 -2q115 0 189 28q109 41 129 135l6 41l2 54q0 59 -3 87.5t-14 80.5q-12 90 -36 153l-50 -39 l-147 -246z" />
<glyph unicode="&#xc7;" horiz-adv-x="1216" d="M139 -279l4 21l103 6q37 0 84 20.5t83 64.5t66 132q-166 16 -248 170q-68 127 -67 311q0 119 51 324q59 240 145 401q106 199 213 199q111 0 234 -143q82 -98 151 -246l-51 -20l-51 -11q-25 0 -133 191q-49 90 -117 90q-94 0 -217 -328q-111 -295 -110 -432 q0 -158 73 -266q86 -121 244 -121q139 0 319.5 131t243.5 131q55 0 55 -51q0 -74 -223 -180q-193 -90 -379 -135q-16 -78 -118 -203q-90 -111 -136 -133l-45 -17l-53 -8q-33 0 -53 10q-20 6 -36.5 33t-18.5 43z" />
<glyph unicode="&#xc8;" horiz-adv-x="976" d="M160 510q98 127 98 274q0 31 -40 71t-50 67q31 102 283 168q195 49 350 49q70 0 110 -21q41 -17 66 -80l-74 -10l-92 -2q-223 0 -291 -20q-141 -43 -141 -203q0 -57 15.5 -96t70.5 -39q53 0 144 42t139 42q63 0 90 -66l-320 -108q-164 -78 -164 -248q0 -63 13 -135 l32 -156l230 188q168 125 250 125q35 0 58.5 -7t23.5 -32q-2 -6 -5.5 -13t-13.5 -21l-27 -29q-31 -31 -120 -76q-45 -23 -78 -42t-51 -36l-76 -67l-72 -68q-47 -39 -88 -59q-16 -8 -30.5 -12.5t-34.5 -4.5q-70 0 -101 62q-6 16 -16 57t-10 100l6 132l8 90q0 68 -18.5 110.5 t-73.5 73.5zM160 1512q0 35 12 71q39 0 115 -57q164 -131 184 -139l55 -8q31 0 66 -11q29 -4 51 -14q37 -18 37 -51l-4 -27l-4 -26q-135 0 -305 69q-207 84 -207 193z" />
<glyph unicode="&#xc9;" horiz-adv-x="976" d="M160 510q98 127 98 274q0 31 -40 71t-50 67q31 102 283 168q195 49 350 49q70 0 110 -21q41 -17 66 -80l-74 -10l-92 -2q-223 0 -291 -20q-141 -43 -141 -203q0 -57 15.5 -96t70.5 -39q53 0 144 42t139 42q63 0 90 -66l-320 -108q-164 -78 -164 -248q0 -63 13 -135 l32 -156l230 188q168 125 250 125q35 0 58.5 -7t23.5 -32q-2 -6 -5.5 -13t-13.5 -21l-27 -29q-31 -31 -120 -76q-45 -23 -78 -42t-51 -36l-76 -67l-72 -68q-47 -39 -88 -59q-16 -8 -30.5 -12.5t-34.5 -4.5q-70 0 -101 62q-6 16 -16 57t-10 100l6 132l8 90q0 68 -18.5 110.5 t-73.5 73.5zM504 1333q0 25 16 49l139 156l60 106q25 45 41 62q31 37 61 36l23 -6q39 -23 39 -65l-6 -39l-33 -68q-76 -131 -129 -190q-84 -90 -193 -115l-14 43z" />
<glyph unicode="&#xca;" horiz-adv-x="976" d="M160 510q98 127 98 274q0 31 -40 71t-50 67q31 102 283 168q195 49 350 49q70 0 110 -21q41 -17 66 -80l-74 -10l-92 -2q-223 0 -291 -20q-141 -43 -141 -203q0 -57 15.5 -96t70.5 -39q53 0 144 42t139 42q63 0 90 -66l-320 -108q-164 -78 -164 -248q0 -63 13 -135 l32 -156l230 188q168 125 250 125q35 0 58.5 -7t23.5 -32q-2 -6 -5.5 -13t-13.5 -21l-27 -29q-31 -31 -120 -76q-45 -23 -78 -42t-51 -36l-76 -67l-72 -68q-47 -39 -88 -59q-16 -8 -30.5 -12.5t-34.5 -4.5q-70 0 -101 62q-6 16 -16 57t-10 100l6 132l8 90q0 68 -18.5 110.5 t-73.5 73.5zM234 1327q0 12 83 163.5t105.5 175.5t32.5 30q20 12 47 14q68 0 117 -100l61 -146l92 -110q31 -37 31 -66q0 -20 -19.5 -33.5t-48.5 -13.5q-20 0 -35.5 9t-19.5 16l-176 274q-31 -25 -76 -108q-78 -147 -133 -148q-29 0 -45 9t-16 34z" />
<glyph unicode="&#xcb;" horiz-adv-x="976" d="M160 510q98 127 98 274q0 31 -40 71t-50 67q31 102 283 168q195 49 350 49q70 0 110 -21q41 -17 66 -80l-74 -10l-92 -2q-223 0 -291 -20q-141 -43 -141 -203q0 -57 15.5 -96t70.5 -39q53 0 144 42t139 42q63 0 90 -66l-320 -108q-164 -78 -164 -248q0 -63 13 -135 l32 -156l230 188q168 125 250 125q35 0 58.5 -7t23.5 -32q-2 -6 -5.5 -13t-13.5 -21l-27 -29q-31 -31 -120 -76q-45 -23 -78 -42t-51 -36l-76 -67l-72 -68q-47 -39 -88 -59q-16 -8 -30.5 -12.5t-34.5 -4.5q-70 0 -101 62q-6 16 -16 57t-10 100l6 132l8 90q0 68 -18.5 110.5 t-73.5 73.5zM232 1382q0 61 50 111.5t118 50.5q49 0 80.5 -38t31.5 -91q0 -61 -47 -115q-43 -53 -108 -53q-51 0 -90 39q-35 41 -35 96zM617 1374q0 61 50 111.5t118 50.5q49 0 80.5 -38t31.5 -91q0 -61 -47 -115q-43 -53 -108 -53q-51 0 -90 39q-35 41 -35 96z" />
<glyph unicode="&#xcc;" horiz-adv-x="1396" d="M160 -59l336 92q225 66 225 176q0 170 -23 352q-12 121 -23 228.5t-18 152.5l-370 -90q-37 -6 -74 12q-31 20 -53 58q94 39 496.5 130t490.5 91q63 0 100 -21.5t49 -83.5q-358 0 -436 -96q-61 -78 -61 -450q0 -168 22 -236q41 -129 164 -129q20 0 47 2t55 8 q139 25 177 25q51 0 83 -16.5t50 -67.5l-119 -31l-127 -16l-233 -17q-72 0 -136.5 -9t-122.5 -23q-27 -6 -176 -62q-113 -41 -180 -41q-84 0 -143 62zM203 1502q0 35 12 71q39 0 115 -57q164 -131 184 -139l55 -8q31 0 66 -11q29 -4 51 -14q37 -18 37 -51l-4 -27l-4 -26 q-135 0 -305 69q-207 84 -207 193z" />
<glyph unicode="&#xcd;" horiz-adv-x="1396" d="M160 -59l336 92q225 66 225 176q0 170 -23 352q-12 121 -23 228.5t-18 152.5l-370 -90q-37 -6 -74 12q-31 20 -53 58q94 39 496.5 130t490.5 91q63 0 100 -21.5t49 -83.5q-358 0 -436 -96q-61 -78 -61 -450q0 -168 22 -236q41 -129 164 -129q20 0 47 2t55 8 q139 25 177 25q51 0 83 -16.5t50 -67.5l-119 -31l-127 -16l-233 -17q-72 0 -136.5 -9t-122.5 -23q-27 -6 -176 -62q-113 -41 -180 -41q-84 0 -143 62zM699 1321q0 25 16 49l139 156l60 106q25 45 41 62q31 37 61 36l23 -6q39 -23 39 -65l-6 -39l-33 -68q-76 -131 -129 -190 q-84 -90 -193 -115l-14 43z" />
<glyph unicode="&#xce;" horiz-adv-x="1396" d="M160 -59l336 92q225 66 225 176q0 170 -23 352q-12 121 -23 228.5t-18 152.5l-370 -90q-37 -6 -74 12q-31 20 -53 58q94 39 496.5 130t490.5 91q63 0 100 -21.5t49 -83.5q-358 0 -436 -96q-61 -78 -61 -450q0 -168 22 -236q41 -129 164 -129q20 0 47 2t55 8 q139 25 177 25q51 0 83 -16.5t50 -67.5l-119 -31l-127 -16l-233 -17q-72 0 -136.5 -9t-122.5 -23q-27 -6 -176 -62q-113 -41 -180 -41q-84 0 -143 62zM441 1323q0 12 83 163.5t105.5 175.5t32.5 30q20 12 47 14q68 0 117 -100l61 -146l92 -110q31 -37 31 -66 q0 -20 -19.5 -33.5t-48.5 -13.5q-20 0 -35.5 9t-19.5 16l-176 274q-31 -25 -76 -108q-78 -147 -133 -148q-29 0 -45 9t-16 34z" />
<glyph unicode="&#xcf;" horiz-adv-x="1396" d="M160 -59l336 92q225 66 225 176q0 170 -23 352q-12 121 -23 228.5t-18 152.5l-370 -90q-37 -6 -74 12q-31 20 -53 58q94 39 496.5 130t490.5 91q63 0 100 -21.5t49 -83.5q-358 0 -436 -96q-61 -78 -61 -450q0 -168 22 -236q41 -129 164 -129q20 0 47 2t55 8 q139 25 177 25q51 0 83 -16.5t50 -67.5l-119 -31l-127 -16l-233 -17q-72 0 -136.5 -9t-122.5 -23q-27 -6 -176 -62q-113 -41 -180 -41q-84 0 -143 62zM430 1390q0 61 50 111.5t118 50.5q49 0 80.5 -38t31.5 -91q0 -61 -47 -115q-43 -53 -108 -53q-51 0 -90 39q-35 41 -35 96 zM815 1382q0 61 50 111.5t118 50.5q49 0 80.5 -38t31.5 -91q0 -61 -47 -115q-43 -53 -108 -53q-51 0 -90 39q-35 41 -35 96z" />
<glyph unicode="&#xd0;" horiz-adv-x="1097" d="M-61 758l92 26q49 12 94 13l84 -6l2 96v57q0 182 16 275q29 170 103 170q16 0 53 -11l55 -16l318 -74q176 -80 282 -215q119 -150 119 -328q0 -170 -113 -315q-88 -113 -266 -233q-86 -57 -299 -179l-67 -38q-47 -23 -70 -27q-51 0 -87 96t-36 275q0 59 -5 187t-5 169 h-23q-39 0 -57 -4l-98 -14q-41 0 -60.5 23.5t-31.5 72.5zM328 492q0 -123 14 -203q12 -86 57 -172h19l395 241q215 164 215 383q0 190 -148.5 341t-344.5 151q-35 0 -70 -11.5t-59.5 -38t-47.5 -149.5q-8 -53 -14 -122.5t-6 -133.5l47 -2q10 0 32.5 2t49.5 8l80 13 q29 0 46 -7.5t17 -33.5q0 -61 -53 -88q-45 -20 -104 -21l-41 2q-8 0 -29 2t-51 9z" />
<glyph unicode="&#xd1;" horiz-adv-x="1038" d="M193 190q12 88 21 205t9 242q0 176 14.5 282.5t26.5 135t29.5 46t48.5 17.5q53 0 150 -196q35 -78 155 -387q86 -233 119 -273l33 -8l14 -2l25 22q0 57 14 129q33 186 33 224v73q-6 61 -8 95q0 96 -7.5 164.5t-11.5 119.5q0 43 18.5 80t59.5 37q39 0 61 -37 q21 -41 21 -80q0 -244 -12.5 -432t-40.5 -344q-49 -301 -150 -301q-80 0 -153 137l-123 283q-74 172 -140 225q-23 -92 -32 -194l-7 -230q0 -66 -10 -94q-18 -53 -69 -53q-45 0 -68 30q-20 35 -20 84zM297 1397q0 37 95 104.5t149 67.5q78 0 139 -92q27 -43 51 -45 q53 0 102.5 90t96.5 102q22 -6 26 -37q0 -59 -77.5 -139t-153.5 -80q-47 0 -113 92q-14 20 -30.5 32.5t-34.5 12.5q-49 0 -120 -70.5t-99 -74.5q-31 0 -31 37z" />
<glyph unicode="&#xd2;" horiz-adv-x="1056" d="M170 432q0 184 68 490q80 356 180 432q14 10 76 26l84 17q45 0 99 -48.5t83 -62.5l16 8h23q129 0 202 -217q54 -163 54 -323q0 -295 -119 -502q-150 -254 -426 -254q-172 0 -264 137q-76 117 -76 297zM170 1762q0 35 12 71q39 0 115 -57q164 -131 184 -139l55 -8 q31 0 66 -11q29 -4 51 -14q37 -18 37 -51l-4 -27l-4 -26q-135 0 -305 69q-207 84 -207 193zM285 453q0 -131 61 -228q72 -111 201 -110q199 0 309 260q82 201 82 428q0 106 -76 209q-25 33 -284 262q-131 -129 -218 -383q-76 -233 -75 -438z" />
<glyph unicode="&#xd3;" horiz-adv-x="1056" d="M170 432q0 184 68 490q80 356 180 432q14 10 76 26l84 17q45 0 99 -48.5t83 -62.5l16 8h23q129 0 202 -217q54 -163 54 -323q0 -295 -119 -502q-150 -254 -426 -254q-172 0 -264 137q-76 117 -76 297zM285 453q0 -131 61 -228q72 -111 201 -110q199 0 309 260 q82 201 82 428q0 106 -76 209q-25 33 -284 262q-131 -129 -218 -383q-76 -233 -75 -438zM529 1581q0 25 16 49l139 156l60 106q25 45 41 62q31 37 61 36l23 -6q39 -23 39 -65l-6 -39l-33 -68q-76 -131 -129 -190q-84 -90 -193 -115l-14 43z" />
<glyph unicode="&#xd4;" horiz-adv-x="1056" d="M170 432q0 184 68 490q80 356 180 432q14 10 76 26l84 17q45 0 99 -48.5t83 -62.5l16 8h23q129 0 202 -217q54 -163 54 -323q0 -295 -119 -502q-150 -254 -426 -254q-172 0 -264 137q-76 117 -76 297zM285 453q0 -131 61 -228q72 -111 201 -110q199 0 309 260 q82 201 82 428q0 106 -76 209q-25 33 -284 262q-131 -129 -218 -383q-76 -233 -75 -438zM287 1565q0 12 83 163.5t105.5 175.5t32.5 30q20 12 47 14q68 0 117 -100l61 -146l92 -110q31 -37 31 -66q0 -20 -19.5 -33.5t-48.5 -13.5q-20 0 -35.5 9t-19.5 16l-176 274 q-31 -25 -76 -108q-78 -147 -133 -148q-29 0 -45 9t-16 34z" />
<glyph unicode="&#xd5;" horiz-adv-x="1056" d="M170 432q0 184 68 490q80 356 180 432q14 10 76 26l84 17q45 0 99 -48.5t83 -62.5l16 8h23q129 0 202 -217q54 -163 54 -323q0 -295 -119 -502q-150 -254 -426 -254q-172 0 -264 137q-76 117 -76 297zM262 1540q0 37 95 104.5t149 67.5q78 0 139 -92q27 -43 51 -45 q53 0 102.5 90t96.5 102q22 -6 26 -37q0 -59 -77.5 -139t-153.5 -80q-47 0 -113 92q-14 20 -30.5 32.5t-34.5 12.5q-49 0 -120 -70.5t-99 -74.5q-31 0 -31 37zM285 453q0 -131 61 -228q72 -111 201 -110q199 0 309 260q82 201 82 428q0 106 -76 209q-25 33 -284 262 q-131 -129 -218 -383q-76 -233 -75 -438z" />
<glyph unicode="&#xd6;" horiz-adv-x="1056" d="M170 432q0 184 68 490q80 356 180 432q14 10 76 26l84 17q45 0 99 -48.5t83 -62.5l16 8h23q129 0 202 -217q54 -163 54 -323q0 -295 -119 -502q-150 -254 -426 -254q-172 0 -264 137q-76 117 -76 297zM240 1626q0 61 50 111.5t118 50.5q49 0 80.5 -38t31.5 -91 q0 -61 -47 -115q-43 -53 -108 -53q-51 0 -90 39q-35 41 -35 96zM285 453q0 -131 61 -228q72 -111 201 -110q199 0 309 260q82 201 82 428q0 106 -76 209q-25 33 -284 262q-131 -129 -218 -383q-76 -233 -75 -438zM625 1618q0 61 50 111.5t118 50.5q49 0 80.5 -38t31.5 -91 q0 -61 -47 -115q-43 -53 -108 -53q-51 0 -90 39q-35 41 -35 96z" />
<glyph unicode="&#xd7;" d="M104 516q0 45 72 117l103 94q20 20 31.5 39.5t11.5 46.5q0 35 -29 64l-125 100q-47 47 -47 94q0 18 12 47l141 -112q92 -74 142 -74q49 0 227 178q31 31 61.5 45t71.5 14l6 -45q0 -43 -26 -82l-111 -112l-41 -49q-16 -23 -24 -52q14 -43 71 -90l90 -73l19 -23 q16 -27 16 -51q0 -16 -13 -29.5t-40 -17.5q-37 0 -96 53l-74 76q-20 20 -42 33.5t-46 13.5q-37 0 -64.5 -27.5t-93.5 -130.5q-16 -27 -23.5 -36t-31.5 -35q-37 -37 -76 -37q-31 0 -57 26q-12 12 -15 35z" />
<glyph unicode="&#xd8;" horiz-adv-x="1056" d="M125 -6q4 25 27 72l63 129q-20 43 -35 110q-8 59 -9 85t-1 42q0 184 68 490q80 356 180 432q14 10 76 26l84 17q41 0 75 -27l109 -84l8 6l29 2q49 0 90 -26q121 166 147 170q20 0 30.5 -14.5t10.5 -45.5q-2 -27 -30 -67l-25 -31l-68 -88q47 -78 78 -231 q10 -53 16.5 -106.5t6.5 -100.5q0 -295 -119 -502q-150 -254 -426 -254q-72 0 -133 25q-57 27 -98 71l-33 -61q-18 -35 -39 -49l-33 -25l-35 -18q-14 12 -14 53zM287 453q0 -49 12 -109q98 172 233 387q102 164 127 201q60 90 117 174q-45 47 -98 86l-98 82 q-131 -129 -218 -383q-76 -233 -75 -438zM348 227q31 -49 82 -80.5t119 -31.5q199 0 309 260q82 201 82 428q0 59 -24.5 120.5t-69.5 110.5q-135 -195 -254 -409z" />
<glyph unicode="&#xd9;" horiz-adv-x="1456" d="M18 844q106 49 250 149q160 113 261.5 178.5t148.5 85.5l72 -45q29 -25 28 -73q0 -123 -62.5 -369t-62.5 -371q0 -139 45 -262q129 43 273 402q117 293 147 499l15 133q18 96 63 97q57 0 86 -92q20 -82 21 -195l-3 -100v-29v-25q-4 -16 -4 -24v-123q6 -55 9 -80l24 -248 q6 -66 57.5 -185.5t55.5 -150.5q0 -61 -60 -61q-78 0 -151 293l-74 381q-119 -307 -239 -475q-59 -80 -113.5 -121t-106.5 -41q-84 0 -139 94q-43 80 -43 174q0 61 6 123.5t23 148.5q31 176 47 290t16 159q0 61 -10 98l-223 -149q-217 -141 -258 -154q-31 10 -33 10 q-14 6 -25 13zM465 1653q0 35 12 71q39 0 115 -57q164 -131 184 -139l55 -8q31 0 66 -11q29 -4 51 -14q37 -18 37 -51l-4 -27l-4 -26q-135 0 -305 69q-207 84 -207 193z" />
<glyph unicode="&#xda;" horiz-adv-x="1456" d="M18 844q106 49 250 149q160 113 261.5 178.5t148.5 85.5l72 -45q29 -25 28 -73q0 -123 -62.5 -369t-62.5 -371q0 -139 45 -262q129 43 273 402q117 293 147 499l15 133q18 96 63 97q57 0 86 -92q20 -82 21 -195l-3 -100v-29v-25q-4 -16 -4 -24v-123q6 -55 9 -80l24 -248 q6 -66 57.5 -185.5t55.5 -150.5q0 -61 -60 -61q-78 0 -151 293l-74 381q-119 -307 -239 -475q-59 -80 -113.5 -121t-106.5 -41q-84 0 -139 94q-43 80 -43 174q0 61 6 123.5t23 148.5q31 176 47 290t16 159q0 61 -10 98l-223 -149q-217 -141 -258 -154q-31 10 -33 10 q-14 6 -25 13zM963 1436q0 25 16 49l139 156l60 106q25 45 41 62q31 37 61 36l23 -6q39 -23 39 -65l-6 -39l-33 -68q-76 -131 -129 -190q-84 -90 -193 -115l-14 43z" />
<glyph unicode="&#xdb;" horiz-adv-x="1456" d="M18 844q106 49 250 149q160 113 261.5 178.5t148.5 85.5l72 -45q29 -25 28 -73q0 -123 -62.5 -369t-62.5 -371q0 -139 45 -262q129 43 273 402q117 293 147 499l15 133q18 96 63 97q57 0 86 -92q20 -82 21 -195l-3 -100v-29v-25q-4 -16 -4 -24v-123q6 -55 9 -80l24 -248 q6 -66 57.5 -185.5t55.5 -150.5q0 -61 -60 -61q-78 0 -151 293l-74 381q-119 -307 -239 -475q-59 -80 -113.5 -121t-106.5 -41q-84 0 -139 94q-43 80 -43 174q0 61 6 123.5t23 148.5q31 176 47 290t16 159q0 61 -10 98l-223 -149q-217 -141 -258 -154q-31 10 -33 10 q-14 6 -25 13zM699 1464q0 12 83 163.5t105.5 175.5t32.5 30q20 12 47 14q68 0 117 -100l61 -146l92 -110q31 -37 31 -66q0 -20 -19.5 -33.5t-48.5 -13.5q-20 0 -35.5 9t-19.5 16l-176 274q-31 -25 -76 -108q-78 -147 -133 -148q-29 0 -45 9t-16 34z" />
<glyph unicode="&#xdc;" horiz-adv-x="1456" d="M18 844q106 49 250 149q160 113 261.5 178.5t148.5 85.5l72 -45q29 -25 28 -73q0 -123 -62.5 -369t-62.5 -371q0 -139 45 -262q129 43 273 402q117 293 147 499l15 133q18 96 63 97q57 0 86 -92q20 -82 21 -195l-3 -100v-29v-25q-4 -16 -4 -24v-123q6 -55 9 -80l24 -248 q6 -66 57.5 -185.5t55.5 -150.5q0 -61 -60 -61q-78 0 -151 293l-74 381q-119 -307 -239 -475q-59 -80 -113.5 -121t-106.5 -41q-84 0 -139 94q-43 80 -43 174q0 61 6 123.5t23 148.5q31 176 47 290t16 159q0 61 -10 98l-223 -149q-217 -141 -258 -154q-31 10 -33 10 q-14 6 -25 13zM649 1532q0 61 50 111.5t118 50.5q49 0 80.5 -38t31.5 -91q0 -61 -47 -115q-43 -53 -108 -53q-51 0 -90 39q-35 41 -35 96zM1034 1524q0 61 50 111.5t118 50.5q49 0 80.5 -38t31.5 -91q0 -61 -47 -115q-43 -53 -108 -53q-51 0 -90 39q-35 41 -35 96z" />
<glyph unicode="&#xdd;" d="M53 1155q0 12 19 41q18 23 37 27q18 0 41 -15l34 -32q37 -39 86 -111l136 -201l69 -82l123 -135q92 274 117 326q104 246 188 246q23 0 44.5 -16.5t25.5 -47.5q0 -53 -64 -149l-51 -84q-35 -78 -78 -197q-49 -133 -92 -258l-92 -279l-14 -88q-6 -63 -25 -98 q-25 -49 -49.5 -68.5t-54.5 -21.5q-33 0 -54.5 21.5t-21.5 54.5q0 43 69 252l72 219q12 45 -104 194l-232 291q-129 160 -129 211zM537 1432q0 25 16 49l139 156l60 106q25 45 41 62q31 37 61 36l23 -6q39 -23 39 -65l-6 -39l-33 -68q-76 -131 -129 -190q-84 -90 -193 -115 l-14 43z" />
<glyph unicode="&#xde;" horiz-adv-x="817" d="M162 774q0 45 37 82q37 33 96 57q4 61 9 114.5t13 98.5q31 213 76 213q10 0 35 -49q20 -55 21 -92q0 -59 -19 -164l-18 -90h61q186 0 311 -50t125 -124q0 -109 -133 -197l-248 -137q-135 -80 -135 -170l37 -76q16 -37 21 -67q0 -41 -26 -76t-67 -35q-45 0 -75 64 q-27 68 -27 190q0 147 14 248q4 39 9.5 82t19.5 115q-57 0 -97 10t-40 53zM412 731q0 -123 26 -229l21 18h20l43 33l39 25l135 94q70 57 70 114q0 18 -61 35q-33 6 -66 10.5t-70 4.5q-92 0 -124.5 -25t-32.5 -80z" />
<glyph unicode="&#xdf;" horiz-adv-x="1277" d="M221 621l111 116l6 203q0 215 174 363.5t385 148.5q96 0 150 -20q82 -31 81 -113q0 -133 -235 -361l-195 -174l365 -161q197 -115 197 -316q0 -147 -99.5 -221t-312.5 -74q-90 0 -217 76q-23 14 -48.5 31.5t-62.5 46.5l88 -31q111 -33 160 -33q172 0 273.5 60.5 t101.5 171.5q0 158 -215 260q-43 18 -408 127q225 225 344 362q127 150 127 207q0 45 -38 64.5t-91 19.5q-174 0 -300 -113.5t-126 -293.5l-20 -1106q0 -70 -17 -111q-12 -45 -43 -45q-18 0 -25 51t-7 152l8 743z" />
<glyph unicode="&#xe0;" horiz-adv-x="976" d="M59 92q0 121 16.5 228.5t55.5 230.5q92 295 248 371q63 -27 104 -58q41 -27 95 -80l24 -4l27 15l28 8q61 0 86 -37q18 -29 19 -86l-2 -49l-2 -43v-103l-2 -57v-53q0 -123 32 -164q44 -56 189 -74q-6 -57 -49 -98t-103 -41q-98 0 -155 100q-18 35 -92 332 q-121 -248 -158 -303q-127 -193 -256 -193q-59 0 -84 46q-20 47 -21 112zM60 1280q0 35 12 71q39 0 115 -57q164 -131 184 -139l55 -8q31 0 66 -11q29 -4 51 -14q37 -18 37 -51l-4 -27l-4 -26q-135 0 -305 69q-207 84 -207 193zM188 156q0 -59 11 -97q104 98 204 246 q121 181 121 285q0 45 -20 86l-86 127h-19q-115 -104 -141 -244q-10 -53 -23.5 -123.5t-17.5 -85.5q-29 -147 -29 -194z" />
<glyph unicode="&#xe1;" horiz-adv-x="976" d="M59 92q0 121 16.5 228.5t55.5 230.5q92 295 248 371q63 -27 104 -58q41 -27 95 -80l24 -4l27 15l28 8q61 0 86 -37q18 -29 19 -86l-2 -49l-2 -43v-103l-2 -57v-53q0 -123 32 -164q44 -56 189 -74q-6 -57 -49 -98t-103 -41q-98 0 -155 100q-18 35 -92 332 q-121 -248 -158 -303q-127 -193 -256 -193q-59 0 -84 46q-20 47 -21 112zM188 156q0 -59 11 -97q104 98 204 246q121 181 121 285q0 45 -20 86l-86 127h-19q-115 -104 -141 -244q-10 -53 -23.5 -123.5t-17.5 -85.5q-29 -147 -29 -194zM350 1088q0 25 16 49l139 156l60 106 q25 45 41 62q31 37 61 36l23 -6q39 -23 39 -65l-6 -39l-33 -68q-76 -131 -129 -190q-84 -90 -193 -115l-14 43z" />
<glyph unicode="&#xe2;" horiz-adv-x="976" d="M59 92q0 121 16.5 228.5t55.5 230.5q92 295 248 371q63 -27 104 -58q41 -27 95 -80l24 -4l27 15l28 8q61 0 86 -37q18 -29 19 -86l-2 -49l-2 -43v-103l-2 -57v-53q0 -123 32 -164q44 -56 189 -74q-6 -57 -49 -98t-103 -41q-98 0 -155 100q-18 35 -92 332 q-121 -248 -158 -303q-127 -193 -256 -193q-59 0 -84 46q-20 47 -21 112zM111 1049q0 12 83 163.5t105.5 175.5t32.5 30q20 12 47 14q68 0 117 -100l61 -146l92 -110q31 -37 31 -66q0 -20 -19.5 -33.5t-48.5 -13.5q-20 0 -35.5 9t-19.5 16l-176 274q-31 -25 -76 -108 q-78 -147 -133 -148q-29 0 -45 9t-16 34zM188 156q0 -59 11 -97q104 98 204 246q121 181 121 285q0 45 -20 86l-86 127h-19q-115 -104 -141 -244q-10 -53 -23.5 -123.5t-17.5 -85.5q-29 -147 -29 -194z" />
<glyph unicode="&#xe3;" horiz-adv-x="976" d="M59 92q0 121 16.5 228.5t55.5 230.5q92 295 248 371q63 -27 104 -58q41 -27 95 -80l24 -4l27 15l28 8q61 0 86 -37q18 -29 19 -86l-2 -49l-2 -43v-103l-2 -57v-53q0 -123 32 -164q44 -56 189 -74q-6 -57 -49 -98t-103 -41q-98 0 -155 100q-18 35 -92 332 q-121 -248 -158 -303q-127 -193 -256 -193q-59 0 -84 46q-20 47 -21 112zM98 1022q0 37 95 104.5t149 67.5q78 0 139 -92q27 -43 51 -45q53 0 102.5 90t96.5 102q22 -6 26 -37q0 -59 -77.5 -139t-153.5 -80q-47 0 -113 92q-14 20 -30.5 32.5t-34.5 12.5q-49 0 -120 -70.5 t-99 -74.5q-31 0 -31 37zM188 156q0 -59 11 -97q104 98 204 246q121 181 121 285q0 45 -20 86l-86 127h-19q-115 -104 -141 -244q-10 -53 -23.5 -123.5t-17.5 -85.5q-29 -147 -29 -194z" />
<glyph unicode="&#xe4;" horiz-adv-x="976" d="M59 92q0 121 16.5 228.5t55.5 230.5q92 295 248 371q63 -27 104 -58q41 -27 95 -80l24 -4l27 15l28 8q61 0 86 -37q18 -29 19 -86l-2 -49l-2 -43v-103l-2 -57v-53q0 -123 32 -164q44 -56 189 -74q-6 -57 -49 -98t-103 -41q-98 0 -155 100q-18 35 -92 332 q-121 -248 -158 -303q-127 -193 -256 -193q-59 0 -84 46q-20 47 -21 112zM70 1122q0 61 50 111.5t118 50.5q49 0 80.5 -38t31.5 -91q0 -61 -47 -115q-43 -53 -108 -53q-51 0 -90 39q-35 41 -35 96zM188 156q0 -59 11 -97q104 98 204 246q121 181 121 285q0 45 -20 86 l-86 127h-19q-115 -104 -141 -244q-10 -53 -23.5 -123.5t-17.5 -85.5q-29 -147 -29 -194zM455 1114q0 61 50 111.5t118 50.5q49 0 80.5 -38t31.5 -91q0 -61 -47 -115q-43 -53 -108 -53q-51 0 -90 39q-35 41 -35 96z" />
<glyph unicode="&#xe5;" horiz-adv-x="976" d="M59 92q0 121 16.5 228.5t55.5 230.5q92 295 248 371q63 -27 104 -58q41 -27 95 -80l24 -4l27 15l28 8q61 0 86 -37q18 -29 19 -86l-2 -49l-2 -43v-103l-2 -57v-53q0 -123 32 -164q44 -56 189 -74q-6 -57 -49 -98t-103 -41q-98 0 -155 100q-18 35 -92 332 q-121 -248 -158 -303q-127 -193 -256 -193q-59 0 -84 46q-20 47 -21 112zM188 156q0 -59 11 -97q104 98 204 246q121 181 121 285q0 45 -20 86l-86 127h-19q-115 -104 -141 -244q-10 -53 -23.5 -123.5t-17.5 -85.5q-29 -147 -29 -194zM260 1155q0 57 22.5 134t55.5 101 q12 12 32 19l29 2q20 0 39 8l39 14l39 9q39 0 57 -35q10 -25 10 -70q0 -100 -49 -203q-59 -123 -153 -122q-57 0 -89 41t-32 102zM323 1188q0 -57 17.5 -83t44.5 -28q55 0 104 88q41 78 41 141q0 41 -14 72q-45 -18 -80 -32.5t-74 -32.5q-39 -35 -39 -125z" />
<glyph unicode="&#xe6;" horiz-adv-x="1492" d="M59 92q0 121 16.5 228.5t55.5 230.5q92 295 248 371q63 -27 104 -58q41 -27 95 -80l24 -4l27 15l28 8q72 0 97 -58q41 45 95 76t112 31q84 0 145 -66.5t61 -152.5q0 -33 -10 -61.5t-37 -63.5q-41 -59 -129 -84l-235 -37q0 -109 21.5 -158t111.5 -75l147 79q166 92 262 93 q75 -1 132 -58q-39 -8 -85.5 -25.5t-99.5 -45.5l-309 -150q-43 -49 -111 -49l-30 2l-37 12h-8q-102 0 -161 50.5t-59 148.5q0 86 35 192q-100 -219 -155 -294q-119 -174 -246 -175q-59 0 -84 46q-20 47 -21 112zM188 156q0 -59 11 -97q104 98 204 246q121 181 121 285 q0 45 -20 86l-86 127h-19q-115 -104 -141 -244q-10 -53 -23.5 -123.5t-17.5 -85.5q-29 -147 -29 -194zM788 498l3 -15q131 41 184 76q61 41 61 84q0 31 -28 59q-25 29 -60 29q-57 0 -114 -88q-51 -84 -46 -145z" />
<glyph unicode="&#xe7;" horiz-adv-x="937" d="M-29 -256l2 18h39q20 0 49 5q29 0 64 18q49 25 84 78q18 31 41 96q-106 20 -156 141q-35 88 -35 230q0 162 105 364q121 231 270 232q119 0 182 -152q47 -117 48 -254l-7 -90q-102 0 -157 131l-62 223q-113 -43 -181.5 -202.5t-68.5 -296.5q0 -94 35 -148q43 -68 129 -67 q88 0 292 103t271 103l23 -2q0 -106 -221 -208q-180 -78 -363 -107q-14 -61 -98 -170q-74 -96 -109 -113l-34 -14l-43 -6q-45 0 -76 39l-14 35z" />
<glyph unicode="&#xe8;" horiz-adv-x="958" d="M59 217q0 178 123 397q139 244 307 244q84 0 145.5 -66.5t61.5 -152.5q0 -61 -43 -123q-59 -78 -256.5 -99.5t-197.5 -209.5q0 -31 30 -60q31 -25 68 -24q53 0 240.5 104.5t289.5 104.5q74 -1 131 -58q-82 -20 -221 -92q-88 -45 -146.5 -73.5t-78.5 -36.5 q-131 -53 -233 -54q-102 0 -161 50.5t-59 148.5zM60 1205q0 35 12 71q39 0 115 -57q164 -131 184 -139l55 -8q31 0 66 -11q29 -4 51 -14q37 -18 37 -51l-4 -27l-4 -26q-135 0 -305 69q-207 84 -207 193zM317 504l2 -15q131 41 185 76q61 41 61 84q0 31 -28 60q-25 29 -60 28 q-57 0 -115 -88q-51 -84 -45 -145z" />
<glyph unicode="&#xe9;" horiz-adv-x="958" d="M59 217q0 178 123 397q139 244 307 244q84 0 145.5 -66.5t61.5 -152.5q0 -61 -43 -123q-59 -78 -256.5 -99.5t-197.5 -209.5q0 -31 30 -60q31 -25 68 -24q53 0 240.5 104.5t289.5 104.5q74 -1 131 -58q-82 -20 -221 -92q-88 -45 -146.5 -73.5t-78.5 -36.5 q-131 -53 -233 -54q-102 0 -161 50.5t-59 148.5zM317 504l2 -15q131 41 185 76q61 41 61 84q0 31 -28 60q-25 29 -60 28q-57 0 -115 -88q-51 -84 -45 -145zM436 1016q0 25 16 49l139 156l60 106q25 45 41 62q31 37 61 36l23 -6q39 -23 39 -65l-6 -39l-33 -68 q-76 -131 -129 -190q-84 -90 -193 -115l-14 43z" />
<glyph unicode="&#xea;" horiz-adv-x="958" d="M59 217q0 178 123 397q139 244 307 244q84 0 145.5 -66.5t61.5 -152.5q0 -61 -43 -123q-59 -78 -256.5 -99.5t-197.5 -209.5q0 -31 30 -60q31 -25 68 -24q53 0 240.5 104.5t289.5 104.5q74 -1 131 -58q-82 -20 -221 -92q-88 -45 -146.5 -73.5t-78.5 -36.5 q-131 -53 -233 -54q-102 0 -161 50.5t-59 148.5zM205 989q0 12 83 163.5t105.5 175.5t32.5 30q20 12 47 14q68 0 117 -100l61 -146l92 -110q31 -37 31 -66q0 -20 -19.5 -33.5t-48.5 -13.5q-20 0 -35.5 9t-19.5 16l-176 274q-31 -25 -76 -108q-78 -147 -133 -148q-29 0 -45 9 t-16 34zM317 504l2 -15q131 41 185 76q61 41 61 84q0 31 -28 60q-25 29 -60 28q-57 0 -115 -88q-51 -84 -45 -145z" />
<glyph unicode="&#xeb;" horiz-adv-x="958" d="M59 217q0 178 123 397q139 244 307 244q84 0 145.5 -66.5t61.5 -152.5q0 -61 -43 -123q-59 -78 -256.5 -99.5t-197.5 -209.5q0 -31 30 -60q31 -25 68 -24q53 0 240.5 104.5t289.5 104.5q74 -1 131 -58q-82 -20 -221 -92q-88 -45 -146.5 -73.5t-78.5 -36.5 q-131 -53 -233 -54q-102 0 -161 50.5t-59 148.5zM166 1069q0 61 50 111.5t118 50.5q49 0 80.5 -38t31.5 -91q0 -61 -47 -115q-43 -53 -108 -53q-51 0 -90 39q-35 41 -35 96zM317 504l2 -15q131 41 185 76q61 41 61 84q0 31 -28 60q-25 29 -60 28q-57 0 -115 -88 q-51 -84 -45 -145zM551 1061q0 61 50 111.5t118 50.5q49 0 80.5 -38t31.5 -91q0 -61 -47 -115q-43 -53 -108 -53q-51 0 -90 39q-35 41 -35 96z" />
<glyph unicode="&#xec;" horiz-adv-x="538" d="M178 84q0 23 12.5 60.5t19.5 65.5t9 44v412v43q0 45 7 68.5t42 23.5q51 0 78 -47q19 -38 19 -97q0 -33 -4.5 -127t-4.5 -118l-18 -412h-19q-16 -12 -47 -14q-41 0 -67.5 29.5t-26.5 68.5zM178 1155q0 35 12 71q39 0 115 -57q164 -131 184 -139l55 -8q31 0 66 -11 q29 -4 51 -14q37 -18 37 -51l-4 -27l-4 -26q-135 0 -305 69q-207 84 -207 193z" />
<glyph unicode="&#xed;" horiz-adv-x="538" d="M178 84q0 23 12.5 60.5t19.5 65.5t9 44v412v43q0 45 7 68.5t42 23.5q51 0 78 -47q19 -38 19 -97q0 -33 -4.5 -127t-4.5 -118l-18 -412h-19q-16 -12 -47 -14q-41 0 -67.5 29.5t-26.5 68.5zM225 983q0 25 16 49l139 156l60 106q25 45 41 62q31 37 61 36l23 -6 q39 -23 39 -65l-6 -39l-33 -68q-76 -131 -129 -190q-84 -90 -193 -115l-14 43z" />
<glyph unicode="&#xee;" horiz-adv-x="538" d="M178 84q0 23 12.5 60.5t19.5 65.5t9 44v412v43q0 45 7 68.5t42 23.5q51 0 78 -47q19 -38 19 -97q0 -33 -4.5 -127t-4.5 -118l-18 -412h-19q-16 -12 -47 -14q-41 0 -67.5 29.5t-26.5 68.5zM179 924q0 12 83 163.5t105.5 175.5t32.5 30q20 12 47 14q68 0 117 -100l61 -146 l92 -110q31 -37 31 -66q0 -20 -19.5 -33.5t-48.5 -13.5q-20 0 -35.5 9t-19.5 16l-176 274q-31 -25 -76 -108q-78 -147 -133 -148q-29 0 -45 9t-16 34z" />
<glyph unicode="&#xef;" horiz-adv-x="538" d="M178 84q0 23 12.5 60.5t19.5 65.5t9 44v412v43q0 45 7 68.5t42 23.5q51 0 78 -47q19 -38 19 -97q0 -33 -4.5 -127t-4.5 -118l-18 -412h-19q-16 -12 -47 -14q-41 0 -67.5 29.5t-26.5 68.5zM178 997q0 61 50 111.5t118 50.5q49 0 80.5 -38t31.5 -91q0 -61 -47 -115 q-43 -53 -108 -53q-51 0 -90 39q-35 41 -35 96zM563 989q0 61 50 111.5t118 50.5q49 0 80.5 -38t31.5 -91q0 -61 -47 -115q-43 -53 -108 -53q-51 0 -90 39q-35 41 -35 96z" />
<glyph unicode="&#xf0;" horiz-adv-x="917" d="M109 424q0 143 87 218t240 75q23 0 46.5 -2t58 -9.5t55.5 -33.5l8 26q0 74 -16.5 135.5t-50.5 118.5l-27 -6q-20 -4 -80 -33l-43 -16l-27 -4q-49 0 -79 68l69 45l80 32l33 9l-88 90q-43 47 -56 84l19 41l43 18q59 -18 117.5 -71.5t113.5 -139.5l43 10l66 27l70 31l26 4 q27 0 33 -25l6 -33q0 -39 -37 -69q-20 -14 -76 -35l-71 -12q80 -154 132 -336t52 -291q0 -176 -100.5 -273.5t-284.5 -97.5q-160 0 -266 152q-96 137 -96 303zM236 416q0 -119 86 -225.5t206 -106.5q92 0 150 82q49 72 49 170q0 125 -72 196q-70 76 -194 76q-94 0 -162 -49 q-63 -51 -63 -143z" />
<glyph unicode="&#xf1;" horiz-adv-x="1357" d="M59 373q12 37 140 139q63 51 252 180l188 131h39l18 -78l6 -63q0 -37 -2 -55.5t-14 -69.5q-37 -166 -37 -209t8 -74q143 229 264 371.5t171 142.5q35 0 53 -57q6 -29 10 -66.5t4 -91.5v-34q0 -10 -2 -31t-2 -33v-37v-32q-4 -25 -4 -37q0 -61 6 -116.5t21 -115.5l47 41 q33 23 51 27q6 -2 14 -3t21 -7l47 -19q-29 -70 -82 -117q-63 -59 -129 -59q-74 0 -107 84q-23 63 -22 182l2 94v36t4 42q0 70 -27 129q-94 -150 -172 -268q-59 -92 -135 -203q-125 -180 -170 -180q-31 0 -51 27.5t-20 60.5q0 76 61 346q31 133 31 209l-2 49l-150 -106 q-178 -135 -280 -135zM621 969q0 37 95 104.5t149 67.5q78 0 139 -92q27 -43 51 -45q53 0 102.5 90t96.5 102q22 -6 26 -37q0 -59 -77.5 -139t-153.5 -80q-47 0 -113 92q-14 20 -30.5 32.5t-34.5 12.5q-49 0 -120 -70.5t-99 -74.5q-31 0 -31 37z" />
<glyph unicode="&#xf2;" horiz-adv-x="757" d="M68 322q0 117 48 285.5t113 228.5q27 23 56 32l61 9h35q33 0 59 10l86 37q49 18 95 18q88 0 122 -74q23 -51 23 -153q0 -225 -104 -441q-129 -262 -334 -262q-125 0 -192.5 90.5t-67.5 219.5zM68 1291q0 35 12 71q39 0 115 -57q164 -131 184 -139l55 -8q31 0 66 -11 q29 -4 51 -14q37 -18 37 -51l-4 -27l-4 -26q-135 0 -305 69q-207 84 -207 193zM205 391q0 -119 41 -182q35 -55 92 -55q123 0 223 192q88 170 88 303l-6 82q-6 31 -25 72q-43 -31 -206 -82q-207 -66 -207 -330z" />
<glyph unicode="&#xf3;" horiz-adv-x="757" d="M68 322q0 117 48 285.5t113 228.5q27 23 56 32l61 9h35q33 0 59 10l86 37q49 18 95 18q88 0 122 -74q23 -51 23 -153q0 -225 -104 -441q-129 -262 -334 -262q-125 0 -192.5 90.5t-67.5 219.5zM205 391q0 -119 41 -182q35 -55 92 -55q123 0 223 192q88 170 88 303l-6 82 q-6 31 -25 72q-43 -31 -206 -82q-207 -66 -207 -330zM537 1147q0 25 16 49l139 156l60 106q25 45 41 62q31 37 61 36l23 -6q39 -23 39 -65l-6 -39l-33 -68q-76 -131 -129 -190q-84 -90 -193 -115l-14 43z" />
<glyph unicode="&#xf4;" horiz-adv-x="757" d="M68 322q0 117 48 285.5t113 228.5q27 23 56 32l61 9h35q33 0 59 10l86 37q49 18 95 18q88 0 122 -74q23 -51 23 -153q0 -225 -104 -441q-129 -262 -334 -262q-125 0 -192.5 90.5t-67.5 219.5zM205 391q0 -119 41 -182q35 -55 92 -55q123 0 223 192q88 170 88 303l-6 82 q-6 31 -25 72q-43 -31 -206 -82q-207 -66 -207 -330zM246 1087q0 12 83 163.5t105.5 175.5t32.5 30q20 12 47 14q68 0 117 -100l61 -146l92 -110q31 -37 31 -66q0 -20 -19.5 -33.5t-48.5 -13.5q-20 0 -35.5 9t-19.5 16l-176 274q-31 -25 -76 -108q-78 -147 -133 -148 q-29 0 -45 9t-16 34z" />
<glyph unicode="&#xf5;" horiz-adv-x="757" d="M68 322q0 117 48 285.5t113 228.5q27 23 56 32l61 9h35q33 0 59 10l86 37q49 18 95 18q88 0 122 -74q23 -51 23 -153q0 -225 -104 -441q-129 -262 -334 -262q-125 0 -192.5 90.5t-67.5 219.5zM199 1078q0 37 95 104.5t149 67.5q78 0 139 -92q27 -43 51 -45q53 0 102.5 90 t96.5 102q22 -6 26 -37q0 -59 -77.5 -139t-153.5 -80q-47 0 -113 92q-14 20 -30.5 32.5t-34.5 12.5q-49 0 -120 -70.5t-99 -74.5q-31 0 -31 37zM205 391q0 -119 41 -182q35 -55 92 -55q123 0 223 192q88 170 88 303l-6 82q-6 31 -25 72q-43 -31 -206 -82q-207 -66 -207 -330 z" />
<glyph unicode="&#xf6;" horiz-adv-x="757" d="M68 322q0 117 48 285.5t113 228.5q27 23 56 32l61 9h35q33 0 59 10l86 37q49 18 95 18q88 0 122 -74q23 -51 23 -153q0 -225 -104 -441q-129 -262 -334 -262q-125 0 -192.5 90.5t-67.5 219.5zM205 391q0 -119 41 -182q35 -55 92 -55q123 0 223 192q88 170 88 303l-6 82 q-6 31 -25 72q-43 -31 -206 -82q-207 -66 -207 -330zM242 1169q0 61 50 111.5t118 50.5q49 0 80.5 -38t31.5 -91q0 -61 -47 -115q-43 -53 -108 -53q-51 0 -90 39q-35 41 -35 96zM627 1161q0 61 50 111.5t118 50.5q49 0 80.5 -38t31.5 -91q0 -61 -47 -115q-43 -53 -108 -53 q-51 0 -90 39q-35 41 -35 96z" />
<glyph unicode="&#xf7;" d="M82 588l98 26q55 12 103 13l102 -6l176 -15q25 0 49.5 4t38.5 6l86 13l45 -6q21 -2 23 -35q0 -61 -58 -88q-47 -20 -112 -21q-49 0 -178 21l-107 10q-43 0 -63 -4l-105 -14q-41 0 -65 24q-20 25 -33 72zM276 250q0 61 50.5 111.5t117.5 50.5q49 0 81 -38t32 -91 q0 -61 -47 -115q-43 -53 -109 -53q-51 0 -90 39q-35 41 -35 96zM334 874q0 61 50 111.5t118 50.5q49 0 80.5 -38t31.5 -91q0 -61 -47 -114q-43 -53 -108 -54q-51 0 -90 39q-35 41 -35 96z" />
<glyph unicode="&#xf8;" horiz-adv-x="757" d="M41 -14q6 37 76 143q-49 84 -49 193q0 117 48 285.5t113 228.5q27 23 56 32l61 9h35q33 0 59 10l86 37q49 18 95 18q49 0 84 -27l75 80q33 29 43 33q12 0 24.5 -12.5t8.5 -30.5t-16.5 -36.5t-28.5 -35.5l-59 -67l10 -58l4 -73q0 -225 -104 -441q-129 -262 -334 -262 q-86 0 -154 49l-35 -57q-10 -14 -28 -24q-29 -23 -58 -31q-14 8 -12 37zM205 391q0 -49 12 -110l189 260q102 137 194 250q-178 -57 -262 -99q-133 -68 -133 -301zM258 193q33 -39 80 -39q123 0 223 192q88 170 88 303l-6 72q-47 -59 -99 -130t-104 -149q-37 -61 -112 -157z " />
<glyph unicode="&#xf9;" horiz-adv-x="1216" d="M74 473q0 84 201.5 286t277.5 202q39 0 57 -27q10 -16 13.5 -31.5t3.5 -38.5q0 -96 -27 -227q-59 -303 -59 -387q0 -86 18 -172l31 33l37 22l-13 8l84 131q86 125 101 158l133 303q111 233 162 254q23 -12 45 -43q18 -31 18 -61q0 -84 -12 -219q-2 -31 -19 -234 q-8 -104 -8 -135q0 -35 43 -156q23 -63 23 -98q0 -25 -8.5 -36t-32.5 -15q-98 0 -154 186l-51 275q-127 -248 -241.5 -395.5t-174.5 -147.5q-59 0 -91 62.5t-32 125.5q0 80 43 375q8 57 14.5 121.5t6.5 105.5l-4 27q-66 -25 -184.5 -150.5t-194.5 -144.5zM365 1362 q0 35 12 71q39 0 115 -57q164 -131 184 -139l55 -8q31 0 66 -11q29 -4 51 -14q37 -18 37 -51l-4 -27l-4 -26q-135 0 -305 69q-207 84 -207 193z" />
<glyph unicode="&#xfa;" horiz-adv-x="1216" d="M74 473q0 84 201.5 286t277.5 202q39 0 57 -27q10 -16 13.5 -31.5t3.5 -38.5q0 -96 -27 -227q-59 -303 -59 -387q0 -86 18 -172l31 33l37 22l-13 8l84 131q86 125 101 158l133 303q111 233 162 254q23 -12 45 -43q18 -31 18 -61q0 -84 -12 -219q-2 -31 -19 -234 q-8 -104 -8 -135q0 -35 43 -156q23 -63 23 -98q0 -25 -8.5 -36t-32.5 -15q-98 0 -154 186l-51 275q-127 -248 -241.5 -395.5t-174.5 -147.5q-59 0 -91 62.5t-32 125.5q0 80 43 375q8 57 14.5 121.5t6.5 105.5l-4 27q-66 -25 -184.5 -150.5t-194.5 -144.5zM819 1159 q0 25 16 49l139 156l60 106q25 45 41 62q31 37 61 36l23 -6q39 -23 39 -65l-6 -39l-33 -68q-76 -131 -129 -190q-84 -90 -193 -115l-14 43z" />
<glyph unicode="&#xfb;" horiz-adv-x="1216" d="M74 473q0 84 201.5 286t277.5 202q39 0 57 -27q10 -16 13.5 -31.5t3.5 -38.5q0 -96 -27 -227q-59 -303 -59 -387q0 -86 18 -172l31 33l37 22l-13 8l84 131q86 125 101 158l133 303q111 233 162 254q23 -12 45 -43q18 -31 18 -61q0 -84 -12 -219q-2 -31 -19 -234 q-8 -104 -8 -135q0 -35 43 -156q23 -63 23 -98q0 -25 -8.5 -36t-32.5 -15q-98 0 -154 186l-51 275q-127 -248 -241.5 -395.5t-174.5 -147.5q-59 0 -91 62.5t-32 125.5q0 80 43 375q8 57 14.5 121.5t6.5 105.5l-4 27q-66 -25 -184.5 -150.5t-194.5 -144.5zM547 1151 q0 12 83 163.5t105.5 175.5t32.5 30q20 12 47 14q68 0 117 -100l61 -146l92 -110q31 -37 31 -66q0 -20 -19.5 -33.5t-48.5 -13.5q-20 0 -35.5 9t-19.5 16l-176 274q-31 -25 -76 -108q-78 -147 -133 -148q-29 0 -45 9t-16 34z" />
<glyph unicode="&#xfc;" horiz-adv-x="1216" d="M74 473q0 84 201.5 286t277.5 202q39 0 57 -27q10 -16 13.5 -31.5t3.5 -38.5q0 -96 -27 -227q-59 -303 -59 -387q0 -86 18 -172l31 33l37 22l-13 8l84 131q86 125 101 158l133 303q111 233 162 254q23 -12 45 -43q18 -31 18 -61q0 -84 -12 -219q-2 -31 -19 -234 q-8 -104 -8 -135q0 -35 43 -156q23 -63 23 -98q0 -25 -8.5 -36t-32.5 -15q-98 0 -154 186l-51 275q-127 -248 -241.5 -395.5t-174.5 -147.5q-59 0 -91 62.5t-32 125.5q0 80 43 375q8 57 14.5 121.5t6.5 105.5l-4 27q-66 -25 -184.5 -150.5t-194.5 -144.5zM524 1216 q0 61 50 111.5t118 50.5q49 0 80.5 -38t31.5 -91q0 -61 -47 -115q-43 -53 -108 -53q-51 0 -90 39q-35 41 -35 96zM909 1208q0 61 50 111.5t118 50.5q49 0 80.5 -38t31.5 -91q0 -61 -47 -115q-43 -53 -108 -53q-51 0 -90 39q-35 41 -35 96z" />
<glyph unicode="&#xfd;" horiz-adv-x="1296" d="M0 629q43 98 182 213q147 123 248 123q72 -31 90.5 -57.5t18.5 -104.5q0 -33 -2 -71t-9 -81q-25 -203 -24 -256l2 -78l12 -63q127 90 213 293l135 338l45 20q63 -27 88 -184l19 -133l102 45q74 31 107 31t49 -19l20 -51l-14 -59l-51 -19l-49 -4h-39q-68 0 -103.5 -50 t-35.5 -116q0 -98 3 -138t13 -132q18 -182 28.5 -296t10.5 -159q0 -213 -33 -401q-45 -270 -143 -422q-123 -195 -330 -195q-160 0 -240 160q-59 125 -59 301q0 231 125 539l219 514q-127 0 -186 86q-43 68 -43 200l6 127l18 193l-2 65q0 25 -12 56q-35 -14 -162 -129 q-100 -90 -180 -90zM369 -971q0 -119 37 -209q49 -121 155 -120q145 0 248 190q76 145 119 397q30 184 30 340q0 225 -16 365q-8 80 -22.5 154.5t-40.5 166.5q-219 -213 -367 -587q-70 -184 -106.5 -359.5t-36.5 -337.5zM698 295q74 33 120 90t46 137l-6 66 q-61 -78 -98 -137q-53 -86 -62 -156zM733 1196q0 25 16 49l139 156l60 106q25 45 41 62q31 37 61 36l23 -6q39 -23 39 -65l-6 -39l-33 -68q-76 -131 -129 -190q-84 -90 -193 -115l-14 43z" />
<glyph unicode="&#xfe;" horiz-adv-x="798" d="M27 -633q0 229 50 725t117.5 906.5t118.5 474.5q6 8 54 26l45 12q0 -76 -43 -348t-43 -303l108 17l90 8q135 0 213 -127q66 -109 66 -252q0 -225 -145.5 -364.5t-374.5 -139.5l-29 -2l-29 -12q-25 -41 -37 -117l-8 -197l2 -147v-59.5t4 -65.5q0 -45 -2 -63.5t-14 -43.5 q-25 -57 -84 -57q-37 0 -48 40t-11 89zM217 244q0 -61 25 -109q25 -41 90 -41q145 0 256 135q102 127 102 277q0 96 -53 178q-61 98 -154 98q-115 0 -200 -217q-33 -88 -49.5 -167t-16.5 -154z" />
<glyph unicode="&#xff;" horiz-adv-x="1296" d="M0 629q43 98 182 213q147 123 248 123q72 -31 90.5 -57.5t18.5 -104.5q0 -33 -2 -71t-9 -81q-25 -203 -24 -256l2 -78l12 -63q127 90 213 293l135 338l45 20q63 -27 88 -184l19 -133l102 45q74 31 107 31t49 -19l20 -51l-14 -59l-51 -19l-49 -4h-39q-68 0 -103.5 -50 t-35.5 -116q0 -98 3 -138t13 -132q18 -182 28.5 -296t10.5 -159q0 -213 -33 -401q-45 -270 -143 -422q-123 -195 -330 -195q-160 0 -240 160q-59 125 -59 301q0 231 125 539l219 514q-127 0 -186 86q-43 68 -43 200l6 127l18 193l-2 65q0 25 -12 56q-35 -14 -162 -129 q-100 -90 -180 -90zM369 -971q0 -119 37 -209q49 -121 155 -120q145 0 248 190q76 145 119 397q30 184 30 340q0 225 -16 365q-8 80 -22.5 154.5t-40.5 166.5q-219 -213 -367 -587q-70 -184 -106.5 -359.5t-36.5 -337.5zM404 1249q0 61 50 111.5t118 50.5q49 0 80.5 -38 t31.5 -91q0 -61 -47 -115q-43 -53 -108 -53q-51 0 -90 39q-35 41 -35 96zM698 295q74 33 120 90t46 137l-6 66q-61 -78 -98 -137q-53 -86 -62 -156zM789 1241q0 61 50 111.5t118 50.5q49 0 80.5 -38t31.5 -91q0 -61 -47 -115q-43 -53 -108 -53q-51 0 -90 39q-35 41 -35 96z " />
<glyph unicode="&#x152;" horiz-adv-x="1757" d="M170 432q0 184 68 490q80 356 180 432q14 10 76 26l84 17q41 0 75 -27l109 -84l8 6l29 2q51 0 92 -29.5t74 -90.5q86 74 297 122q166 37 284 37q72 0 111.5 -21t64.5 -89l-67 -11l-96 -2q-225 0 -293 -22q-143 -47 -144 -221q0 -80 22.5 -114t65.5 -34q23 0 48.5 6 t58.5 23q72 33 115 48t61 15q63 0 90 -71l-321 -119q-164 -84 -164 -270q0 -70 12 -148l33 -168l231 203q172 137 250 137q35 0 58.5 -7t23.5 -34q-2 -6 -4 -13t-12 -24l-27 -35q-27 -27 -156 -100q-59 -33 -94 -67l-149 -146q-33 -33 -76 -57q-37 -25 -80 -25q-66 0 -96 66 q-25 68 -25 174l2 86l2 80q-61 -168 -172 -264q-129 -111 -309 -111q-172 0 -264 137q-76 117 -76 297zM285 453q0 -131 61 -228q72 -111 201 -110q195 0 293 167t98 521q0 106 -76 209q-25 33 -284 262q-131 -129 -218 -383q-76 -233 -75 -438z" />
<glyph unicode="&#x153;" horiz-adv-x="1499" d="M68 322q0 117 48 285.5t113 228.5q27 23 56 32l61 9h35q33 0 59 10l86 37q49 18 95 18q84 0 120 -70q25 -49 25 -147q51 63 109.5 98t121.5 35q84 0 145.5 -66.5t61.5 -152.5q0 -61 -43 -123q-59 -78 -256.5 -99.5t-197.5 -209.5q0 -31 30 -60q31 -25 68 -24 q53 0 240.5 104.5t289.5 104.5q74 -1 131 -58q-82 -20 -221 -92q-88 -45 -146.5 -73.5t-78.5 -36.5q-131 -53 -234 -54q-43 0 -75.5 6.5t-61.5 22.5q-51 31 -71 96q-47 -59 -113 -95t-137 -36q-125 0 -192.5 90.5t-67.5 219.5zM205 391q0 -119 41 -182q35 -55 92 -55 q123 0 223 192q88 170 88 303l-6 82q-6 31 -25 72q-43 -31 -206 -82q-207 -66 -207 -330zM825 504l2 -15q131 41 185 76q61 41 61 84q0 31 -29 60q-25 29 -59 28q-57 0 -115 -88q-51 -84 -45 -145z" />
<glyph unicode="&#x178;" d="M53 1155q0 12 19 41q18 23 37 27q18 0 41 -15l34 -32q37 -39 86 -111l136 -201l69 -82l123 -135q92 274 117 326q104 246 188 246q23 0 44.5 -16.5t25.5 -47.5q0 -53 -64 -149l-51 -84q-35 -78 -78 -197q-49 -133 -92 -258l-92 -279l-14 -88q-6 -63 -25 -98 q-25 -49 -49.5 -68.5t-54.5 -21.5q-33 0 -54.5 21.5t-21.5 54.5q0 43 69 252l72 219q12 45 -104 194l-232 291q-129 160 -129 211zM217 1519q0 61 50 111.5t118 50.5q49 0 80.5 -38t31.5 -91q0 -61 -47 -115q-43 -53 -108 -53q-51 0 -90 39q-35 41 -35 96zM602 1511 q0 61 50 111.5t118 50.5q49 0 80.5 -38t31.5 -91q0 -61 -47 -115q-43 -53 -108 -53q-51 0 -90 39q-35 41 -35 96z" />
<glyph unicode="&#x2c6;" horiz-adv-x="1122" d="M240 1155q0 12 83 163.5t105.5 175.5t32.5 30q20 12 47 14q68 0 117 -100l61 -146l92 -110q31 -37 31 -66q0 -20 -19.5 -33.5t-48.5 -13.5q-20 0 -35.5 9t-19.5 16l-176 274q-31 -25 -76 -108q-78 -147 -133 -148q-29 0 -45 9t-16 34z" />
<glyph unicode="&#x2dc;" horiz-adv-x="1032" d="M211 1311q0 37 95 104.5t149 67.5q78 0 139 -92q27 -43 51 -45q53 0 102.5 90t96.5 102q22 -6 26 -37q0 -59 -77.5 -139t-153.5 -80q-47 0 -113 92q-14 20 -30.5 32.5t-34.5 12.5q-49 0 -120 -70.5t-99 -74.5q-31 0 -31 37z" />
<glyph unicode="&#x2000;" horiz-adv-x="1014" />
<glyph unicode="&#x2001;" horiz-adv-x="2029" />
<glyph unicode="&#x2002;" horiz-adv-x="1014" />
<glyph unicode="&#x2003;" horiz-adv-x="2029" />
<glyph unicode="&#x2004;" horiz-adv-x="676" />
<glyph unicode="&#x2005;" horiz-adv-x="507" />
<glyph unicode="&#x2006;" horiz-adv-x="338" />
<glyph unicode="&#x2007;" horiz-adv-x="338" />
<glyph unicode="&#x2008;" horiz-adv-x="253" />
<glyph unicode="&#x2009;" horiz-adv-x="405" />
<glyph unicode="&#x200a;" horiz-adv-x="112" />
<glyph unicode="&#x2010;" d="M160 629l98 26q55 12 102 13l103 -6l176 -15q25 0 49.5 4t38.5 6l86 13l45 -6q21 -2 23 -35q0 -61 -58 -88q-47 -20 -112 -21q-49 0 -179 21l-106 10q-43 0 -64 -4l-104 -15q-41 0 -65 25q-20 25 -33 72z" />
<glyph unicode="&#x2011;" d="M160 629l98 26q55 12 102 13l103 -6l176 -15q25 0 49.5 4t38.5 6l86 13l45 -6q21 -2 23 -35q0 -61 -58 -88q-47 -20 -112 -21q-49 0 -179 21l-106 10q-43 0 -64 -4l-104 -15q-41 0 -65 25q-20 25 -33 72z" />
<glyph unicode="&#x2012;" d="M160 629l98 26q55 12 102 13l103 -6l176 -15q25 0 49.5 4t38.5 6l86 13l45 -6q21 -2 23 -35q0 -61 -58 -88q-47 -20 -112 -21q-49 0 -179 21l-106 10q-43 0 -64 -4l-104 -15q-41 0 -65 25q-20 25 -33 72z" />
<glyph unicode="&#x2013;" horiz-adv-x="718" d="M0 629l98 26q55 12 103 13l102 -6l176 -15q25 0 49.5 4t38.5 6l86 13l45 -6q21 -2 23 -35q0 -61 -57 -88q-47 -20 -113 -21q-49 0 -178 21l-107 10q-43 0 -63 -4l-105 -15q-41 0 -65 25q-20 25 -33 72z" />
<glyph unicode="&#x2014;" horiz-adv-x="1124" d="M0 629l98 26q55 12 103 13l321 -13l326 -12q14 0 36.5 2t53.5 8l84 13q33 0 49.5 -6t18.5 -35q0 -61 -58 -88q-47 -20 -112 -21q-90 8 -210 15.5t-221 7.5l-223 12q-43 0 -63 -4l-105 -15q-41 0 -65 25q-20 25 -33 72z" />
<glyph unicode="&#x2018;" horiz-adv-x="577" d="M-10 1071q0 25 2 50.5t8 52.5l18 83q18 94 49 125t132 31q0 -45 -19 -117q-41 -158 -41 -196q0 -39 19 -82l41 -76l-33 -31q-14 -10 -39 -14q-61 0 -99 54.5t-38 119.5z" />
<glyph unicode="&#x2019;" horiz-adv-x="559" d="M299 823l18 19l2 22q27 25 75 147t48 163q0 61 -24 116l-60 99q0 59 56 59q76 0 123 -54t47 -130q0 -68 -10.5 -129.5t-36.5 -143.5q-61 -190 -158 -190q-25 0 -39 4z" />
<glyph unicode="&#x201a;" horiz-adv-x="393" d="M152 -410q0 39 20 107q12 37 16.5 55.5t6.5 42.5l-2 123q0 78 13 108.5t50 30.5q51 0 72 -51q12 -30 12 -96q0 -160 -16 -227q-25 -125 -109 -197l-47 45q-16 20 -16 59z" />
<glyph unicode="&#x201c;" horiz-adv-x="657" d="M-31 1120q0 92 31 172q39 101 119 121q-23 -78 -33 -180l-6 -219v-92h-8l-54 20l-30 68q-18 47 -19 110zM170 1032q0 49 12 98l39 160l2 31l6 45q6 29 50 29q31 0 51 -12.5t22 -45.5l-6 -43l-8 -37l-39 -354q-78 18 -96 35q-33 27 -33 94z" />
<glyph unicode="&#x201d;" horiz-adv-x="638" d="M305 1343q0 72 72 72q27 0 43 -13.5t16 -58.5q0 -31 -4 -47l-14 -79l2 -84q0 -41 -3 -57.5t-14.5 -40t-64.5 -54.5q0 20 -8 29q-8 4 -11 28q0 31 5 45l14 74q0 23 -2 38t-14 56q-2 10 -9.5 46t-7.5 46zM530 1102q0 76 19.5 149.5t68.5 122.5l60 -20q0 -156 -16 -230 q-25 -137 -103 -202l-22 84z" />
<glyph unicode="&#x201e;" horiz-adv-x="935" d="M223 -49q0 72 72 72q27 0 43 -13.5t16 -58.5q0 -31 -4 -47l-14 -80l2 -84q0 -41 -3 -57.5t-14.5 -40t-64.5 -54.5q0 20 -8 29q-8 4 -10 29q0 31 4 45l14 73q0 23 -2 38.5t-14 56.5q-2 10 -9.5 46t-7.5 46zM449 -291q0 76 19 149.5t69 123.5l59 -21q0 -156 -16 -229 q-25 -137 -103 -203l-22 86z" />
<glyph unicode="&#x2022;" horiz-adv-x="632" d="M102 641q0 100 84 181t189 81q82 0 132 -62.5t50 -146.5q0 -98 -74.5 -185t-177.5 -87q-86 0 -144.5 66.5t-58.5 152.5z" />
<glyph unicode="&#x2026;" horiz-adv-x="1591" d="M141 135q0 61 50.5 111.5t117.5 50.5q49 0 81 -38t32 -91q0 -61 -47 -115q-43 -53 -109 -53q-51 0 -90 39q-35 41 -35 96zM676 135q0 61 50 111.5t118 50.5q49 0 80.5 -38t31.5 -91q0 -61 -47 -115q-43 -53 -108 -53q-51 0 -90 39q-35 41 -35 96zM1212 135 q0 61 50.5 111.5t117.5 50.5q49 0 81 -38t32 -91q0 -61 -47 -115q-43 -53 -109 -53q-51 0 -90 39q-35 41 -35 96z" />
<glyph unicode="&#x202f;" horiz-adv-x="405" />
<glyph unicode="&#x2039;" horiz-adv-x="1257" d="M164 408q0 37 102 178q84 119 205 268l162 197q66 78 128 117.5t105 39.5q49 0 90 -39q-61 -74 -116.5 -133t-85.5 -92l-209 -221q-117 -131 -187 -240q102 -57 301 -114l314 -82q53 -12 80 -31q47 -29 47 -70q0 -27 -17 -49q-10 -18 -39 -22q-203 78 -407.5 144.5 t-319.5 66.5q-61 0 -98 12q-55 18 -55 70z" />
<glyph unicode="&#x203a;" horiz-adv-x="1077" d="M135 1204l21 21l20 -21l51 17q14 0 140 -107l245 -213q141 -117 203 -149q57 -27 80 -45q47 -37 47 -78q0 -35 -45 -72q-20 -14 -82 -41q-119 -45 -233 -125q-76 -53 -207 -168l-74 -94q-53 -68 -92 -68q-25 0 -44.5 28t-19.5 54q0 78 150 191l420 319q-117 74 -326 258 q-233 209 -254 293z" />
<glyph unicode="&#x205f;" horiz-adv-x="507" />
<glyph unicode="&#x2122;" horiz-adv-x="1191" d="M35 1384v11q0 18 14 27.5t39 17.5l182 30l340 52l39 -9l13 -16q-12 -35 -111 -47q-45 0 -72.5 -4t-47 -10t-32.5 -95l-8 -200v-68l2 -49q0 -14 13 -43l16 -39q0 -10 -19 -27q-16 -10 -32 -14q-23 0 -35 51l-8 103l8 125l8 125q0 55 -12 116l-256 -45zM598 997v70 q6 35 8 53q18 166 19 209q0 37 24 37q61 0 92 -134t74 -169q12 16 66 129q88 203 104 207l14 -8q6 -6 16.5 -35t18.5 -65t8 -77l5 -225l8 -53l10 -47q0 -43 -41 -43q-18 0 -31 37l-8 92l2 57l2 37v23v41q0 25 -4 45q0 23 -12 69l-60 -139q-51 -94 -106 -94q-45 0 -78 47 q-23 33 -37 90l-22 -117q-12 -74 -62 -92q-6 16 -10 55z" />
<glyph unicode="&#xe000;" horiz-adv-x="1054" d="M0 0v1055h1055v-1055h-1055z" />
</font>
</defs>
</svg>
